<svg width="1600" height="1135" viewBox="0 0 1600 1135" fill="none" xmlns="http://www.w3.org/2000/svg">
<rect width="1600" height="1135" fill="#FFE6DE"/>
<path d="M941.167 235.5H658.833C636.558 235.5 618.5 253.558 618.5 275.833V558.167C618.5 580.442 636.558 598.5 658.833 598.5H941.167C963.442 598.5 981.5 580.442 981.5 558.167V275.833C981.5 253.558 963.442 235.5 941.167 235.5Z" stroke="#FF835A" stroke-width="17" stroke-linecap="round" stroke-linejoin="round"/>
<path d="M729.417 376.667C746.123 376.667 759.667 363.123 759.667 346.417C759.667 329.71 746.123 316.167 729.417 316.167C712.71 316.167 699.167 329.71 699.167 346.417C699.167 363.123 712.71 376.667 729.417 376.667Z" stroke="#FF835A" stroke-width="17" stroke-linecap="round" stroke-linejoin="round"/>
<path d="M981.5 477.5L880.667 376.667L658.833 598.5" stroke="#FF835A" stroke-width="17" stroke-linecap="round" stroke-linejoin="round"/>
<path d="M320.249 842.273H335.625V889.503C335.625 894.806 334.359 899.446 331.825 903.423C329.316 907.401 325.8 910.502 321.279 912.727C316.757 914.929 311.489 916.03 305.476 916.03C299.439 916.03 294.16 914.929 289.638 912.727C285.116 910.502 281.601 907.401 279.091 903.423C276.582 899.446 275.327 894.806 275.327 889.503V842.273H290.703V888.189C290.703 890.959 291.307 893.421 292.514 895.575C293.745 897.73 295.474 899.422 297.699 900.653C299.924 901.884 302.517 902.5 305.476 902.5C308.459 902.5 311.051 901.884 313.253 900.653C315.478 899.422 317.195 897.73 318.402 895.575C319.633 893.421 320.249 890.959 320.249 888.189V842.273ZM347.992 935.455V860.455H362.907V869.616H363.581C364.244 868.149 365.203 866.657 366.458 865.142C367.736 863.603 369.394 862.325 371.43 861.307C373.489 860.265 376.046 859.744 379.1 859.744C383.077 859.744 386.747 860.786 390.108 862.869C393.47 864.929 396.157 868.042 398.17 872.209C400.182 876.352 401.188 881.548 401.188 887.798C401.188 893.883 400.206 899.02 398.241 903.21C396.299 907.377 393.648 910.537 390.286 912.692C386.948 914.822 383.207 915.888 379.064 915.888C376.129 915.888 373.631 915.402 371.572 914.432C369.536 913.461 367.867 912.242 366.564 910.774C365.262 909.283 364.268 907.779 363.581 906.264H363.12V935.455H347.992ZM362.8 887.727C362.8 890.971 363.25 893.8 364.15 896.214C365.049 898.629 366.351 900.511 368.056 901.861C369.76 903.187 371.832 903.849 374.27 903.849C376.733 903.849 378.816 903.175 380.52 901.825C382.225 900.452 383.515 898.558 384.391 896.143C385.291 893.705 385.741 890.9 385.741 887.727C385.741 884.579 385.303 881.809 384.427 879.418C383.551 877.027 382.26 875.156 380.556 873.807C378.851 872.457 376.756 871.783 374.27 871.783C371.808 871.783 369.725 872.434 368.02 873.736C366.34 875.038 365.049 876.884 364.15 879.276C363.25 881.667 362.8 884.484 362.8 887.727ZM426.401 842.273V915H411.273V842.273H426.401ZM463.164 916.065C457.648 916.065 452.878 914.893 448.853 912.55C444.852 910.182 441.763 906.892 439.585 902.678C437.407 898.44 436.318 893.527 436.318 887.94C436.318 882.306 437.407 877.382 439.585 873.168C441.763 868.93 444.852 865.639 448.853 863.295C452.878 860.928 457.648 859.744 463.164 859.744C468.68 859.744 473.439 860.928 477.44 863.295C481.464 865.639 484.566 868.93 486.744 873.168C488.922 877.382 490.011 882.306 490.011 887.94C490.011 893.527 488.922 898.44 486.744 902.678C484.566 906.892 481.464 910.182 477.44 912.55C473.439 914.893 468.68 916.065 463.164 916.065ZM463.235 904.347C465.745 904.347 467.84 903.636 469.521 902.216C471.202 900.772 472.468 898.807 473.32 896.321C474.196 893.835 474.634 891.006 474.634 887.834C474.634 884.661 474.196 881.832 473.32 879.347C472.468 876.861 471.202 874.896 469.521 873.452C467.84 872.008 465.745 871.286 463.235 871.286C460.702 871.286 458.571 872.008 456.843 873.452C455.139 874.896 453.848 876.861 452.972 879.347C452.12 881.832 451.694 884.661 451.694 887.834C451.694 891.006 452.12 893.835 452.972 896.321C453.848 898.807 455.139 900.772 456.843 902.216C458.571 903.636 460.702 904.347 463.235 904.347ZM515.401 916.03C511.921 916.03 508.82 915.426 506.097 914.219C503.375 912.988 501.221 911.177 499.634 908.786C498.072 906.371 497.291 903.364 497.291 899.766C497.291 896.735 497.847 894.19 498.96 892.131C500.072 890.071 501.588 888.414 503.505 887.159C505.423 885.904 507.601 884.957 510.039 884.318C512.501 883.679 515.082 883.229 517.781 882.969C520.953 882.637 523.51 882.33 525.451 882.045C527.392 881.738 528.801 881.288 529.677 880.696C530.553 880.104 530.991 879.228 530.991 878.068V877.855C530.991 875.606 530.281 873.866 528.86 872.635C527.463 871.404 525.475 870.788 522.894 870.788C520.172 870.788 518.006 871.392 516.396 872.599C514.786 873.783 513.721 875.275 513.2 877.074L499.208 875.938C499.919 872.623 501.315 869.759 503.399 867.344C505.482 864.905 508.169 863.035 511.46 861.733C514.774 860.407 518.609 859.744 522.965 859.744C525.996 859.744 528.896 860.099 531.666 860.81C534.459 861.52 536.933 862.621 539.088 864.112C541.266 865.604 542.982 867.521 544.237 869.865C545.491 872.185 546.119 874.967 546.119 878.21V915H531.772V907.436H531.346C530.47 909.141 529.298 910.644 527.83 911.946C526.363 913.224 524.599 914.231 522.539 914.964C520.48 915.675 518.1 916.03 515.401 916.03ZM519.734 905.589C521.959 905.589 523.924 905.152 525.629 904.276C527.333 903.376 528.671 902.169 529.642 900.653C530.612 899.138 531.097 897.422 531.097 895.504V889.716C530.624 890.024 529.973 890.308 529.144 890.568C528.339 890.805 527.428 891.03 526.41 891.243C525.392 891.432 524.374 891.61 523.356 891.776C522.338 891.918 521.415 892.048 520.586 892.166C518.811 892.427 517.26 892.841 515.934 893.409C514.608 893.977 513.579 894.747 512.845 895.717C512.111 896.664 511.744 897.848 511.744 899.268C511.744 901.328 512.49 902.902 513.981 903.991C515.496 905.057 517.414 905.589 519.734 905.589ZM577.955 915.888C573.812 915.888 570.059 914.822 566.698 912.692C563.36 910.537 560.708 907.377 558.743 903.21C556.802 899.02 555.831 893.883 555.831 887.798C555.831 881.548 556.837 876.352 558.85 872.209C560.862 868.042 563.537 864.929 566.875 862.869C570.237 860.786 573.918 859.744 577.919 859.744C580.973 859.744 583.518 860.265 585.554 861.307C587.614 862.325 589.271 863.603 590.526 865.142C591.804 866.657 592.775 868.149 593.438 869.616H593.899V842.273H608.992V915H594.077V906.264H593.438C592.727 907.779 591.721 909.283 590.419 910.774C589.141 912.242 587.472 913.461 585.412 914.432C583.376 915.402 580.89 915.888 577.955 915.888ZM582.749 903.849C585.187 903.849 587.247 903.187 588.928 901.861C590.632 900.511 591.934 898.629 592.834 896.214C593.757 893.8 594.219 890.971 594.219 887.727C594.219 884.484 593.769 881.667 592.869 879.276C591.97 876.884 590.668 875.038 588.963 873.736C587.259 872.434 585.187 871.783 582.749 871.783C580.263 871.783 578.168 872.457 576.463 873.807C574.759 875.156 573.468 877.027 572.593 879.418C571.717 881.809 571.279 884.579 571.279 887.727C571.279 890.9 571.717 893.705 572.593 896.143C573.492 898.558 574.782 900.452 576.463 901.825C578.168 903.175 580.263 903.849 582.749 903.849ZM653.914 935.455C651.996 935.455 650.197 935.301 648.516 934.993C646.859 934.709 645.485 934.342 644.396 933.892L647.806 922.599C649.581 923.144 651.179 923.44 652.6 923.487C654.044 923.535 655.287 923.203 656.328 922.493C657.394 921.783 658.258 920.575 658.921 918.871L659.808 916.562L640.242 860.455H656.151L667.443 900.511H668.012L679.411 860.455H695.426L674.226 920.895C673.208 923.83 671.823 926.387 670.071 928.565C668.343 930.767 666.153 932.46 663.502 933.643C660.85 934.851 657.654 935.455 653.914 935.455ZM726.055 916.065C720.539 916.065 715.768 914.893 711.744 912.55C707.743 910.182 704.653 906.892 702.475 902.678C700.297 898.44 699.208 893.527 699.208 887.94C699.208 882.306 700.297 877.382 702.475 873.168C704.653 868.93 707.743 865.639 711.744 863.295C715.768 860.928 720.539 859.744 726.055 859.744C731.571 859.744 736.329 860.928 740.33 863.295C744.355 865.639 747.456 868.93 749.634 873.168C751.812 877.382 752.901 882.306 752.901 887.94C752.901 893.527 751.812 898.44 749.634 902.678C747.456 906.892 744.355 910.182 740.33 912.55C736.329 914.893 731.571 916.065 726.055 916.065ZM726.126 904.347C728.635 904.347 730.731 903.636 732.411 902.216C734.092 900.772 735.359 898.807 736.211 896.321C737.087 893.835 737.525 891.006 737.525 887.834C737.525 884.661 737.087 881.832 736.211 879.347C735.359 876.861 734.092 874.896 732.411 873.452C730.731 872.008 728.635 871.286 726.126 871.286C723.593 871.286 721.462 872.008 719.734 873.452C718.029 874.896 716.739 876.861 715.863 879.347C715.011 881.832 714.585 884.661 714.585 887.834C714.585 891.006 715.011 893.835 715.863 896.321C716.739 898.807 718.029 900.772 719.734 902.216C721.462 903.636 723.593 904.347 726.126 904.347ZM797.717 891.776V860.455H812.845V915H798.32V905.092H797.752C796.521 908.288 794.473 910.857 791.609 912.798C788.768 914.74 785.3 915.71 781.204 915.71C777.558 915.71 774.35 914.882 771.58 913.224C768.811 911.567 766.644 909.212 765.082 906.158C763.543 903.104 762.762 899.446 762.738 895.185V860.455H777.866V892.486C777.89 895.705 778.754 898.25 780.458 900.121C782.163 901.991 784.447 902.926 787.312 902.926C789.135 902.926 790.839 902.512 792.426 901.683C794.012 900.831 795.29 899.576 796.261 897.919C797.255 896.262 797.74 894.214 797.717 891.776ZM824.945 915V860.455H839.611V869.972H840.18C841.174 866.586 842.843 864.029 845.187 862.301C847.53 860.549 850.229 859.673 853.283 859.673C854.041 859.673 854.858 859.721 855.733 859.815C856.609 859.91 857.379 860.04 858.042 860.206V873.629C857.332 873.416 856.349 873.227 855.094 873.061C853.84 872.895 852.691 872.812 851.65 872.812C849.424 872.812 847.436 873.298 845.684 874.268C843.956 875.215 842.582 876.541 841.564 878.246C840.57 879.95 840.073 881.915 840.073 884.141V915H824.945ZM913.653 916.065C908.136 916.065 903.366 914.893 899.341 912.55C895.34 910.182 892.251 906.892 890.073 902.678C887.895 898.44 886.806 893.527 886.806 887.94C886.806 882.306 887.895 877.382 890.073 873.168C892.251 868.93 895.34 865.639 899.341 863.295C903.366 860.928 908.136 859.744 913.653 859.744C919.169 859.744 923.927 860.928 927.928 863.295C931.953 865.639 935.054 868.93 937.232 873.168C939.41 877.382 940.499 882.306 940.499 887.94C940.499 893.527 939.41 898.44 937.232 902.678C935.054 906.892 931.953 910.182 927.928 912.55C923.927 914.893 919.169 916.065 913.653 916.065ZM913.724 904.347C916.233 904.347 918.328 903.636 920.009 902.216C921.69 900.772 922.956 898.807 923.809 896.321C924.685 893.835 925.123 891.006 925.123 887.834C925.123 884.661 924.685 881.832 923.809 879.347C922.956 876.861 921.69 874.896 920.009 873.452C918.328 872.008 916.233 871.286 913.724 871.286C911.19 871.286 909.06 872.008 907.331 873.452C905.627 874.896 904.337 876.861 903.461 879.347C902.608 881.832 902.182 884.661 902.182 887.834C902.182 891.006 902.608 893.835 903.461 896.321C904.337 898.807 905.627 900.772 907.331 902.216C909.06 903.636 911.19 904.347 913.724 904.347ZM959.729 915L944.885 860.455H960.19L968.642 897.102H969.139L977.946 860.455H992.967L1001.92 896.889H1002.38L1010.69 860.455H1025.96L1011.15 915H995.133L985.758 880.696H985.084L975.709 915H959.729ZM1049.16 883.466V915H1034.03V860.455H1048.44V870.078H1049.08C1050.29 866.906 1052.32 864.396 1055.16 862.55C1058 860.679 1061.44 859.744 1065.49 859.744C1069.28 859.744 1072.58 860.573 1075.4 862.23C1078.22 863.887 1080.41 866.255 1081.97 869.332C1083.53 872.386 1084.31 876.032 1084.31 880.27V915H1069.18V882.969C1069.21 879.631 1068.35 877.027 1066.63 875.156C1064.9 873.262 1062.52 872.315 1059.49 872.315C1057.45 872.315 1055.65 872.753 1054.09 873.629C1052.55 874.505 1051.34 875.784 1050.47 877.464C1049.62 879.122 1049.18 881.122 1049.16 883.466ZM1144.02 916.065C1138.44 916.065 1133.63 914.882 1129.61 912.514C1125.61 910.123 1122.53 906.809 1120.37 902.571C1118.24 898.333 1117.18 893.456 1117.18 887.94C1117.18 882.353 1118.25 877.453 1120.41 873.239C1122.59 869.001 1125.68 865.698 1129.68 863.331C1133.68 860.94 1138.44 859.744 1143.95 859.744C1148.71 859.744 1152.88 860.608 1156.45 862.337C1160.03 864.065 1162.86 866.491 1164.94 869.616C1167.02 872.741 1168.17 876.411 1168.38 880.625H1154.11C1153.71 877.902 1152.64 875.713 1150.91 874.055C1149.21 872.375 1146.97 871.534 1144.2 871.534C1141.86 871.534 1139.81 872.173 1138.06 873.452C1136.33 874.706 1134.98 876.541 1134.01 878.956C1133.04 881.371 1132.55 884.295 1132.55 887.727C1132.55 891.207 1133.03 894.167 1133.97 896.605C1134.94 899.044 1136.31 900.902 1138.06 902.18C1139.81 903.459 1141.86 904.098 1144.2 904.098C1145.93 904.098 1147.48 903.743 1148.85 903.033C1150.25 902.322 1151.4 901.293 1152.3 899.943C1153.22 898.57 1153.82 896.925 1154.11 895.007H1168.38C1168.15 899.174 1167.01 902.843 1164.98 906.016C1162.96 909.164 1160.18 911.626 1156.63 913.402C1153.08 915.178 1148.88 916.065 1144.02 916.065ZM1193.62 916.03C1190.14 916.03 1187.04 915.426 1184.32 914.219C1181.6 912.988 1179.44 911.177 1177.86 908.786C1176.29 906.371 1175.51 903.364 1175.51 899.766C1175.51 896.735 1176.07 894.19 1177.18 892.131C1178.3 890.071 1179.81 888.414 1181.73 887.159C1183.65 885.904 1185.82 884.957 1188.26 884.318C1190.72 883.679 1193.3 883.229 1196 882.969C1199.18 882.637 1201.73 882.33 1203.67 882.045C1205.62 881.738 1207.02 881.288 1207.9 880.696C1208.78 880.104 1209.21 879.228 1209.21 878.068V877.855C1209.21 875.606 1208.5 873.866 1207.08 872.635C1205.69 871.404 1203.7 870.788 1201.12 870.788C1198.39 870.788 1196.23 871.392 1194.62 872.599C1193.01 873.783 1191.94 875.275 1191.42 877.074L1177.43 875.938C1178.14 872.623 1179.54 869.759 1181.62 867.344C1183.7 864.905 1186.39 863.035 1189.68 861.733C1193 860.407 1196.83 859.744 1201.19 859.744C1204.22 859.744 1207.12 860.099 1209.89 860.81C1212.68 861.52 1215.16 862.621 1217.31 864.112C1219.49 865.604 1221.2 867.521 1222.46 869.865C1223.71 872.185 1224.34 874.967 1224.34 878.21V915H1209.99V907.436H1209.57C1208.69 909.141 1207.52 910.644 1206.05 911.946C1204.59 913.224 1202.82 914.231 1200.76 914.964C1198.7 915.675 1196.32 916.03 1193.62 916.03ZM1197.96 905.589C1200.18 905.589 1202.15 905.152 1203.85 904.276C1205.56 903.376 1206.89 902.169 1207.86 900.653C1208.83 899.138 1209.32 897.422 1209.32 895.504V889.716C1208.85 890.024 1208.2 890.308 1207.37 890.568C1206.56 890.805 1205.65 891.03 1204.63 891.243C1203.61 891.432 1202.6 891.61 1201.58 891.776C1200.56 891.918 1199.64 892.048 1198.81 892.166C1197.03 892.427 1195.48 892.841 1194.16 893.409C1192.83 893.977 1191.8 894.747 1191.07 895.717C1190.33 896.664 1189.97 897.848 1189.97 899.268C1189.97 901.328 1190.71 902.902 1192.2 903.991C1193.72 905.057 1195.64 905.589 1197.96 905.589ZM1236.08 915V860.455H1250.74V869.972H1251.31C1252.31 866.586 1253.98 864.029 1256.32 862.301C1258.66 860.549 1261.36 859.673 1264.42 859.673C1265.17 859.673 1265.99 859.721 1266.87 859.815C1267.74 859.91 1268.51 860.04 1269.17 860.206V873.629C1268.46 873.416 1267.48 873.227 1266.23 873.061C1264.97 872.895 1263.82 872.812 1262.78 872.812C1260.56 872.812 1258.57 873.298 1256.82 874.268C1255.09 875.215 1253.72 876.541 1252.7 878.246C1251.7 879.95 1251.21 881.915 1251.21 884.141V915H1236.08ZM1294.56 915.888C1290.41 915.888 1286.66 914.822 1283.3 912.692C1279.96 910.537 1277.31 907.377 1275.34 903.21C1273.4 899.02 1272.43 893.883 1272.43 887.798C1272.43 881.548 1273.44 876.352 1275.45 872.209C1277.46 868.042 1280.14 864.929 1283.48 862.869C1286.84 860.786 1290.52 859.744 1294.52 859.744C1297.57 859.744 1300.12 860.265 1302.16 861.307C1304.22 862.325 1305.87 863.603 1307.13 865.142C1308.41 866.657 1309.38 868.149 1310.04 869.616H1310.5V842.273H1325.59V915H1310.68V906.264H1310.04C1309.33 907.779 1308.32 909.283 1307.02 910.774C1305.74 912.242 1304.07 913.461 1302.01 914.432C1299.98 915.402 1297.49 915.888 1294.56 915.888ZM1299.35 903.849C1301.79 903.849 1303.85 903.187 1305.53 901.861C1307.23 900.511 1308.54 898.629 1309.44 896.214C1310.36 893.8 1310.82 890.971 1310.82 887.727C1310.82 884.484 1310.37 881.667 1309.47 879.276C1308.57 876.884 1307.27 875.038 1305.56 873.736C1303.86 872.434 1301.79 871.783 1299.35 871.783C1296.86 871.783 1294.77 872.457 1293.06 873.807C1291.36 875.156 1290.07 877.027 1289.19 879.418C1288.32 881.809 1287.88 884.579 1287.88 887.727C1287.88 890.9 1288.32 893.705 1289.19 896.143C1290.09 898.558 1291.38 900.452 1293.06 901.825C1294.77 903.175 1296.86 903.849 1299.35 903.849Z" fill="black"/>
</svg>
