<svg width="134" height="231" viewBox="0 0 134 231" fill="none" xmlns="http://www.w3.org/2000/svg">
<g opacity="0.3">
<path d="M3.8252 216.51L22.2922 216.763" stroke="#5A5A5A" stroke-width="5.23432" stroke-miterlimit="10" stroke-linecap="round"/>
<path d="M13.1856 207.404L12.9327 225.87" stroke="#5A5A5A" stroke-width="5.23432" stroke-miterlimit="10" stroke-linecap="round"/>
<path d="M4.22452 187.35L22.6915 187.603" stroke="#5A5A5A" stroke-width="5.23432" stroke-miterlimit="10" stroke-linecap="round"/>
<path d="M13.5849 178.244L13.332 196.71" stroke="#5A5A5A" stroke-width="5.23432" stroke-miterlimit="10" stroke-linecap="round"/>
<path d="M4.62386 158.19L23.0909 158.443" stroke="#5A5A5A" stroke-width="5.23432" stroke-miterlimit="10" stroke-linecap="round"/>
<path d="M13.9842 149.084L13.7314 167.55" stroke="#5A5A5A" stroke-width="5.23432" stroke-miterlimit="10" stroke-linecap="round"/>
<path d="M5.02319 129.03L23.4902 129.283" stroke="#5A5A5A" stroke-width="5.23432" stroke-miterlimit="10" stroke-linecap="round"/>
<path d="M14.3836 119.924L14.1307 138.391" stroke="#5A5A5A" stroke-width="5.23432" stroke-miterlimit="10" stroke-linecap="round"/>
<path d="M5.42253 99.8701L23.8895 100.123" stroke="#5A5A5A" stroke-width="5.23432" stroke-miterlimit="10" stroke-linecap="round"/>
<path d="M14.7829 90.764L14.53 109.23" stroke="#5A5A5A" stroke-width="5.23432" stroke-miterlimit="10" stroke-linecap="round"/>
<path d="M5.82187 70.7101L24.2889 70.963" stroke="#5A5A5A" stroke-width="5.23432" stroke-miterlimit="10" stroke-linecap="round"/>
<path d="M15.1823 61.604L14.9294 80.0705" stroke="#5A5A5A" stroke-width="5.23432" stroke-miterlimit="10" stroke-linecap="round"/>
<path d="M6.22119 41.5504L24.6882 41.8033" stroke="#5A5A5A" stroke-width="5.23432" stroke-miterlimit="10" stroke-linecap="round"/>
<path d="M15.5816 32.4443L15.3287 50.9108" stroke="#5A5A5A" stroke-width="5.23432" stroke-miterlimit="10" stroke-linecap="round"/>
<path d="M6.62053 12.3904L25.0875 12.6433" stroke="#5A5A5A" stroke-width="5.23432" stroke-miterlimit="10" stroke-linecap="round"/>
<path d="M15.9809 3.2843L15.728 21.7508" stroke="#5A5A5A" stroke-width="5.23432" stroke-miterlimit="10" stroke-linecap="round"/>
<path d="M30.1064 216.87L48.5735 217.123" stroke="#5A5A5A" stroke-width="5.23432" stroke-miterlimit="10" stroke-linecap="round"/>
<path d="M39.4669 207.764L39.214 226.23" stroke="#5A5A5A" stroke-width="5.23432" stroke-miterlimit="10" stroke-linecap="round"/>
<path d="M30.5058 187.71L48.9729 187.963" stroke="#5A5A5A" stroke-width="5.23432" stroke-miterlimit="10" stroke-linecap="round"/>
<path d="M39.8663 178.604L39.6134 197.07" stroke="#5A5A5A" stroke-width="5.23432" stroke-miterlimit="10" stroke-linecap="round"/>
<path d="M30.9051 158.55L49.3722 158.803" stroke="#5A5A5A" stroke-width="5.23432" stroke-miterlimit="10" stroke-linecap="round"/>
<path d="M40.2656 149.444L40.0127 167.91" stroke="#5A5A5A" stroke-width="5.23432" stroke-miterlimit="10" stroke-linecap="round"/>
<path d="M31.3045 129.39L49.7716 129.643" stroke="#5A5A5A" stroke-width="5.23432" stroke-miterlimit="10" stroke-linecap="round"/>
<path d="M40.665 120.284L40.4121 138.75" stroke="#5A5A5A" stroke-width="5.23432" stroke-miterlimit="10" stroke-linecap="round"/>
<path d="M31.7038 100.23L50.1709 100.483" stroke="#5A5A5A" stroke-width="5.23432" stroke-miterlimit="10" stroke-linecap="round"/>
<path d="M41.0643 91.1239L40.8114 109.59" stroke="#5A5A5A" stroke-width="5.23432" stroke-miterlimit="10" stroke-linecap="round"/>
<path d="M32.1031 71.0701L50.5702 71.323" stroke="#5A5A5A" stroke-width="5.23432" stroke-miterlimit="10" stroke-linecap="round"/>
<path d="M41.4636 61.9639L41.2107 80.4304" stroke="#5A5A5A" stroke-width="5.23432" stroke-miterlimit="10" stroke-linecap="round"/>
<path d="M32.5025 41.9103L50.9696 42.1632" stroke="#5A5A5A" stroke-width="5.23432" stroke-miterlimit="10" stroke-linecap="round"/>
<path d="M41.863 32.8041L41.6101 51.2706" stroke="#5A5A5A" stroke-width="5.23432" stroke-miterlimit="10" stroke-linecap="round"/>
<path d="M32.9018 12.7502L51.3689 13.0031" stroke="#5A5A5A" stroke-width="5.23432" stroke-miterlimit="10" stroke-linecap="round"/>
<path d="M42.2623 3.6441L42.0094 22.1106" stroke="#5A5A5A" stroke-width="5.23432" stroke-miterlimit="10" stroke-linecap="round"/>
<path d="M56.4252 217.23L74.8549 217.483" stroke="#5A5A5A" stroke-width="5.23432" stroke-miterlimit="10" stroke-linecap="round"/>
<path d="M65.7856 208.124L65.5327 226.591" stroke="#5A5A5A" stroke-width="5.23432" stroke-miterlimit="10" stroke-linecap="round"/>
<path d="M56.8246 188.07L75.2542 188.323" stroke="#5A5A5A" stroke-width="5.23432" stroke-miterlimit="10" stroke-linecap="round"/>
<path d="M66.185 178.964L65.9321 197.43" stroke="#5A5A5A" stroke-width="5.23432" stroke-miterlimit="10" stroke-linecap="round"/>
<path d="M57.2239 158.91L75.6536 159.163" stroke="#5A5A5A" stroke-width="5.23432" stroke-miterlimit="10" stroke-linecap="round"/>
<path d="M66.5843 149.804L66.3314 168.271" stroke="#5A5A5A" stroke-width="5.23432" stroke-miterlimit="10" stroke-linecap="round"/>
<path d="M57.6232 129.75L76.0529 130.003" stroke="#5A5A5A" stroke-width="5.23432" stroke-miterlimit="10" stroke-linecap="round"/>
<path d="M66.9836 120.644L66.7307 139.111" stroke="#5A5A5A" stroke-width="5.23432" stroke-miterlimit="10" stroke-linecap="round"/>
<path d="M58.0226 100.59L76.4523 100.843" stroke="#5A5A5A" stroke-width="5.23432" stroke-miterlimit="10" stroke-linecap="round"/>
<path d="M67.383 91.4842L67.1301 109.951" stroke="#5A5A5A" stroke-width="5.23432" stroke-miterlimit="10" stroke-linecap="round"/>
<path d="M58.4219 71.4305L76.8516 71.6829" stroke="#5A5A5A" stroke-width="5.23432" stroke-miterlimit="10" stroke-linecap="round"/>
<path d="M67.7823 62.3243L67.5294 80.7908" stroke="#5A5A5A" stroke-width="5.23432" stroke-miterlimit="10" stroke-linecap="round"/>
<path d="M58.8213 42.2707L77.2509 42.5231" stroke="#5A5A5A" stroke-width="5.23432" stroke-miterlimit="10" stroke-linecap="round"/>
<path d="M68.1817 33.1645L67.9288 51.631" stroke="#5A5A5A" stroke-width="5.23432" stroke-miterlimit="10" stroke-linecap="round"/>
<path d="M59.2206 13.1107L77.6503 13.363" stroke="#5A5A5A" stroke-width="5.23432" stroke-miterlimit="10" stroke-linecap="round"/>
<path d="M68.581 4.00451L68.3281 22.471" stroke="#5A5A5A" stroke-width="5.23432" stroke-miterlimit="10" stroke-linecap="round"/>
<path d="M82.7066 217.59L101.174 217.843" stroke="#5A5A5A" stroke-width="5.23432" stroke-miterlimit="10" stroke-linecap="round"/>
<path d="M92.067 208.484L91.8141 226.951" stroke="#5A5A5A" stroke-width="5.23432" stroke-miterlimit="10" stroke-linecap="round"/>
<path d="M83.1059 188.43L101.573 188.683" stroke="#5A5A5A" stroke-width="5.23432" stroke-miterlimit="10" stroke-linecap="round"/>
<path d="M92.4663 179.324L92.2134 197.791" stroke="#5A5A5A" stroke-width="5.23432" stroke-miterlimit="10" stroke-linecap="round"/>
<path d="M83.5052 159.27L101.972 159.523" stroke="#5A5A5A" stroke-width="5.23432" stroke-miterlimit="10" stroke-linecap="round"/>
<path d="M92.8656 150.164L92.6127 168.631" stroke="#5A5A5A" stroke-width="5.23432" stroke-miterlimit="10" stroke-linecap="round"/>
<path d="M83.9046 130.11L102.372 130.363" stroke="#5A5A5A" stroke-width="5.23432" stroke-miterlimit="10" stroke-linecap="round"/>
<path d="M93.265 121.004L93.0121 139.471" stroke="#5A5A5A" stroke-width="5.23432" stroke-miterlimit="10" stroke-linecap="round"/>
<path d="M84.3039 100.95L102.771 101.203" stroke="#5A5A5A" stroke-width="5.23432" stroke-miterlimit="10" stroke-linecap="round"/>
<path d="M93.6643 91.8443L93.4114 110.311" stroke="#5A5A5A" stroke-width="5.23432" stroke-miterlimit="10" stroke-linecap="round"/>
<path d="M84.7032 71.7905L103.17 72.0434" stroke="#5A5A5A" stroke-width="5.23432" stroke-miterlimit="10" stroke-linecap="round"/>
<path d="M94.0636 62.6843L93.8107 81.1508" stroke="#5A5A5A" stroke-width="5.23432" stroke-miterlimit="10" stroke-linecap="round"/>
<path d="M85.1026 42.6307L103.57 42.8836" stroke="#5A5A5A" stroke-width="5.23432" stroke-miterlimit="10" stroke-linecap="round"/>
<path d="M94.463 33.5246L94.2101 51.9911" stroke="#5A5A5A" stroke-width="5.23432" stroke-miterlimit="10" stroke-linecap="round"/>
<path d="M85.5019 13.4706L103.969 13.7235" stroke="#5A5A5A" stroke-width="5.23432" stroke-miterlimit="10" stroke-linecap="round"/>
<path d="M94.8623 4.3645L94.6094 22.831" stroke="#5A5A5A" stroke-width="5.23432" stroke-miterlimit="10" stroke-linecap="round"/>
<path d="M109.025 217.951L127.455 218.203" stroke="#5A5A5A" stroke-width="5.23432" stroke-miterlimit="10" stroke-linecap="round"/>
<path d="M118.386 208.844L118.133 227.311" stroke="#5A5A5A" stroke-width="5.23432" stroke-miterlimit="10" stroke-linecap="round"/>
<path d="M109.425 188.791L127.854 189.043" stroke="#5A5A5A" stroke-width="5.23432" stroke-miterlimit="10" stroke-linecap="round"/>
<path d="M118.785 179.684L118.532 198.151" stroke="#5A5A5A" stroke-width="5.23432" stroke-miterlimit="10" stroke-linecap="round"/>
<path d="M109.824 159.631L128.253 159.883" stroke="#5A5A5A" stroke-width="5.23432" stroke-miterlimit="10" stroke-linecap="round"/>
<path d="M119.184 150.525L118.931 168.991" stroke="#5A5A5A" stroke-width="5.23432" stroke-miterlimit="10" stroke-linecap="round"/>
<path d="M110.223 130.471L128.653 130.723" stroke="#5A5A5A" stroke-width="5.23432" stroke-miterlimit="10" stroke-linecap="round"/>
<path d="M119.584 121.365L119.331 139.831" stroke="#5A5A5A" stroke-width="5.23432" stroke-miterlimit="10" stroke-linecap="round"/>
<path d="M110.623 101.311L129.052 101.563" stroke="#5A5A5A" stroke-width="5.23432" stroke-miterlimit="10" stroke-linecap="round"/>
<path d="M119.983 92.2046L119.73 110.671" stroke="#5A5A5A" stroke-width="5.23432" stroke-miterlimit="10" stroke-linecap="round"/>
<path d="M111.022 72.1508L129.451 72.4032" stroke="#5A5A5A" stroke-width="5.23432" stroke-miterlimit="10" stroke-linecap="round"/>
<path d="M120.382 63.0447L120.129 81.5112" stroke="#5A5A5A" stroke-width="5.23432" stroke-miterlimit="10" stroke-linecap="round"/>
<path d="M111.421 42.9911L129.851 43.2435" stroke="#5A5A5A" stroke-width="5.23432" stroke-miterlimit="10" stroke-linecap="round"/>
<path d="M120.782 33.8849L120.529 52.3514" stroke="#5A5A5A" stroke-width="5.23432" stroke-miterlimit="10" stroke-linecap="round"/>
<path d="M111.821 13.8311L130.25 14.0834" stroke="#5A5A5A" stroke-width="5.23432" stroke-miterlimit="10" stroke-linecap="round"/>
<path d="M121.181 4.72485L120.928 23.1913" stroke="#5A5A5A" stroke-width="5.23432" stroke-miterlimit="10" stroke-linecap="round"/>
</g>
</svg>
