<svg width="1458" height="1027" viewBox="0 0 1458 1027" fill="none" xmlns="http://www.w3.org/2000/svg">
<path d="M744.63 1024.82C788.482 1024.82 824.031 989.291 824.031 945.46C824.031 901.629 788.482 866.097 744.63 866.097C700.778 866.097 665.229 901.629 665.229 945.46C665.229 989.291 700.778 1024.82 744.63 1024.82Z" fill="#F6781E"/>
<path d="M1218.98 1020.36C1263.4 1007.03 1310.62 993.126 1345.85 961.427C1377.33 933.101 1398.58 889.846 1385.54 847.365C1372.53 804.972 1333.54 776.704 1293.3 762.644C1270.47 754.67 1246.59 750.246 1222.71 746.771C1196.76 742.993 1170.69 739.898 1144.64 736.92C1039.14 724.859 933.25 717.491 826.961 714.817C774.514 713.496 722.076 713.528 669.622 714.289C622.776 714.969 573.439 714.952 529.981 695.051C496.187 679.576 465.515 651.421 456.098 614.422C445.229 571.713 465.278 528.22 494.038 497.289C509.198 480.985 526.916 467.262 545.193 454.644C565.022 440.955 585.542 428.236 606.506 416.363C647.797 392.99 690.964 373.099 735.561 356.895C757.562 348.899 779.889 342.001 802.409 335.637C821.426 330.263 840.502 324.882 858.881 317.56C894.41 303.406 928.203 279.431 937.237 240.127C945.798 202.875 931.363 162.436 906.054 134.762C876.775 102.746 832.627 88.7109 790.302 86.4401C742.785 83.8907 696.363 95.7773 651.701 110.863C604.066 126.953 557.458 145.454 508.817 158.487C460.582 171.398 411.414 180.533 361.76 185.809C337.452 188.396 312.41 191.318 287.958 189.337C267.465 187.677 247.076 181.653 231.973 167.116C219.023 154.651 211.308 137.52 213.961 119.442C214.442 116.158 219.433 117.554 218.954 120.818C215.725 142.824 230.691 163.103 249.134 173.49C270.448 185.495 296.384 185.511 320.114 184.138C371.568 181.032 422.673 173.648 472.9 162.062C522.253 150.795 569.844 134.688 617.382 117.482C662.53 101.141 708.687 85.1921 756.92 81.6527C798.772 78.5816 842.797 84.6758 879.257 106.537C911.3 125.75 934.863 157.79 942.371 194.558C949.708 230.487 939.547 266.649 912.337 291.722C884.164 317.681 845.535 328.779 809.536 339.001C763.876 351.965 719.196 367.12 675.948 386.797C632.111 406.686 590.069 430.31 550.287 457.41C511.888 483.638 473.992 516.64 461.848 563.431C456.19 585.227 457.235 608.344 466.701 628.931C475.117 647.236 488.979 662.634 505.127 674.511C543.655 702.848 592.213 708.666 638.752 709.245C691.021 709.895 743.292 708.131 795.577 708.989C902.134 710.737 1008.47 717.22 1114.59 728.438C1141.19 731.251 1167.74 734.361 1194.27 737.767C1218.12 740.831 1242.06 743.875 1265.52 749.317C1307.22 758.993 1347.81 777.597 1373.73 812.942C1385.24 828.262 1392.36 846.418 1394.35 865.47C1396.17 885.352 1391.3 905.272 1382.3 922.958C1362.4 962.106 1325.11 987.006 1285.52 1003.37C1264.31 1012.13 1242.31 1018.77 1220.35 1025.36C1217.15 1026.32 1215.79 1021.32 1218.98 1020.36Z" fill="#F2F2F2"/>
<path d="M217.304 161.315C240.184 161.315 258.731 142.776 258.731 119.908C258.731 97.0393 240.184 78.5007 217.304 78.5007C194.425 78.5007 175.878 97.0393 175.878 119.908C175.878 142.776 194.425 161.315 217.304 161.315Z" fill="#F2F2F2"/>
<path d="M504.701 239.815C527.58 239.815 546.128 221.277 546.128 198.408C546.128 175.54 527.58 157.001 504.701 157.001C481.822 157.001 463.275 175.54 463.275 198.408C463.275 221.277 481.822 239.815 504.701 239.815Z" fill="#F2F2F2"/>
<path d="M748.082 82.814C770.962 82.814 789.509 64.2755 789.509 41.407C789.509 18.5385 770.962 0 748.082 0C725.203 0 706.656 18.5385 706.656 41.407C706.656 64.2755 725.203 82.814 748.082 82.814Z" fill="#F2F2F2"/>
<path d="M899.98 258.794C922.859 258.794 941.406 240.255 941.406 217.387C941.406 194.518 922.859 175.98 899.98 175.98C877.101 175.98 858.553 194.518 858.553 217.387C858.553 240.255 877.101 258.794 899.98 258.794Z" fill="#F2F2F2"/>
<path d="M694.573 462.378C717.452 462.378 736 443.84 736 420.971C736 398.103 717.452 379.564 694.573 379.564C671.694 379.564 653.146 398.103 653.146 420.971C653.146 443.84 671.694 462.378 694.573 462.378Z" fill="#F2F2F2"/>
<path d="M433.931 560.72C456.81 560.72 475.358 542.181 475.358 519.313C475.358 496.445 456.81 477.906 433.931 477.906C411.052 477.906 392.504 496.445 392.504 519.313C392.504 542.181 411.052 560.72 433.931 560.72Z" fill="#F2F2F2"/>
<path d="M710.108 714.271C732.987 714.271 751.535 695.732 751.535 672.864C751.535 649.996 732.987 631.457 710.108 631.457C687.229 631.457 668.681 649.996 668.681 672.864C668.681 695.732 687.229 714.271 710.108 714.271Z" fill="#F2F2F2"/>
<path d="M1007 800.535C1029.88 800.535 1048.42 781.997 1048.42 759.128C1048.42 736.26 1029.88 717.721 1007 717.721C984.119 717.721 965.572 736.26 965.572 759.128C965.572 781.997 984.119 800.535 1007 800.535Z" fill="#F2F2F2"/>
<path d="M1353.95 781.557C1376.83 781.557 1395.37 763.019 1395.37 740.15C1395.37 717.282 1376.83 698.743 1353.95 698.743C1331.07 698.743 1312.52 717.282 1312.52 740.15C1312.52 763.019 1331.07 781.557 1353.95 781.557Z" fill="#F2F2F2"/>
<path d="M736.125 117.326C612.032 118.202 510.426 218.997 508.663 343.022C508.647 344.167 508.639 352.219 508.64 362.75C508.641 378.19 514.778 392.998 525.7 403.916C536.623 414.835 551.438 420.969 566.886 420.971C574.543 420.97 582.126 419.46 589.199 416.528C596.273 413.596 602.699 409.3 608.111 403.885C613.523 398.47 617.814 392.042 620.74 384.968C623.665 377.895 625.168 370.314 625.161 362.66C625.155 355.497 625.151 350.539 625.151 350.234C625.147 331.066 630.136 312.228 639.625 295.571C649.115 278.914 662.779 265.014 679.274 255.237C695.768 245.46 714.525 240.142 733.699 239.809C752.873 239.475 771.804 244.136 788.629 253.333C805.455 262.53 819.595 275.947 829.659 292.263C839.723 308.579 845.364 327.233 846.028 346.389C846.692 365.546 842.355 384.545 833.445 401.518C824.534 418.491 811.356 432.853 795.208 443.192L795.228 443.217C795.228 443.217 712.326 496.562 687.052 569.742L687.073 569.747C682.629 584.738 680.377 600.293 680.387 615.929C680.387 622.357 680.765 678.594 681.496 724.239C681.752 739.988 688.191 755.006 699.426 766.052C710.66 777.098 725.789 783.286 741.547 783.283C749.466 783.282 757.306 781.717 764.617 778.677C771.928 775.636 778.565 771.181 784.147 765.567C789.728 759.953 794.145 753.292 797.141 745.966C800.137 738.64 801.654 730.794 801.606 722.879C801.352 681.077 801.214 632.402 801.214 628.869C801.214 583.934 844.583 539.163 880.207 509.966C921.23 476.346 950.75 430.529 962.607 378.846C965.23 368.205 966.677 357.309 966.921 346.352C966.921 316.136 960.939 286.219 949.32 258.323C937.7 230.428 920.674 205.107 899.221 183.818C877.767 162.529 852.312 145.694 824.32 134.282C796.328 122.87 766.354 117.108 736.125 117.326Z" fill="#F6781E"/>
<path d="M1084.77 470.998C1113.37 470.998 1136.55 447.825 1136.55 419.239C1136.55 390.653 1113.37 367.48 1084.77 367.48C1056.17 367.48 1032.99 390.653 1032.99 419.239C1032.99 447.825 1056.17 470.998 1084.77 470.998Z" fill="#2F2E41"/>
<path d="M989.08 1004.34H967.92L957.851 922.757H989.085L989.08 1004.34Z" fill="#A0616A"/>
<path d="M952.803 998.298H993.615V1023.98H927.107C927.107 1020.61 927.772 1017.27 929.063 1014.15C930.354 1011.04 932.247 1008.21 934.633 1005.82C937.019 1003.44 939.852 1001.54 942.97 1000.25C946.087 998.962 949.429 998.298 952.803 998.298Z" fill="#2F2E41"/>
<path d="M1153.06 1004.34H1131.9L1121.83 922.757H1153.07L1153.06 1004.34Z" fill="#A0616A"/>
<path d="M1116.78 998.298H1157.6V1023.98H1091.09C1091.09 1020.61 1091.75 1017.27 1093.04 1014.15C1094.33 1011.04 1096.23 1008.21 1098.61 1005.82C1101 1003.44 1103.83 1001.54 1106.95 1000.25C1110.07 998.962 1113.41 998.298 1116.78 998.298Z" fill="#2F2E41"/>
<path d="M1076.9 471.3C1100.31 471.3 1119.3 452.328 1119.3 428.925C1119.3 405.522 1100.31 386.55 1076.9 386.55C1053.49 386.55 1034.51 405.522 1034.51 428.925C1034.51 452.328 1053.49 471.3 1076.9 471.3Z" fill="#A0616A"/>
<path d="M1102.17 608.003L1121.14 564.439C1125.75 554.22 1127.07 542.823 1124.92 531.822C1122.77 520.82 1117.26 510.756 1109.14 503.019C1107.48 501.372 1105.71 499.834 1103.84 498.413C1094.48 491.094 1082.95 487.105 1071.06 487.077C1063.07 487.108 1055.19 488.862 1047.94 492.219C1047.31 492.495 1046.71 492.788 1046.09 493.081C1044.9 493.651 1043.72 494.272 1042.58 494.91C1035.15 499.175 1028.83 505.126 1024.12 512.282C1019.41 519.439 1016.46 527.601 1015.48 536.11L1007.11 606.226C1005.01 611.73 929.887 810.483 956.158 962.223C956.438 963.843 957.228 965.332 958.415 966.471C959.601 967.61 961.121 968.34 962.752 968.555L989.386 972.178C991.331 972.444 993.304 971.963 994.908 970.833C996.513 969.703 997.629 968.007 998.033 966.087L1042.72 753.169C1043 751.846 1043.71 750.655 1044.75 749.785C1045.79 748.916 1047.08 748.419 1048.44 748.373C1049.79 748.327 1051.12 748.736 1052.21 749.533C1053.3 750.331 1054.09 751.471 1054.46 752.772L1117.6 976.681C1118.05 978.308 1119.02 979.742 1120.37 980.764C1121.71 981.787 1123.35 982.34 1125.04 982.34C1125.54 982.337 1126.05 982.29 1126.54 982.202L1159.08 975.939C1160.97 975.586 1162.66 974.539 1163.82 973.003C1164.98 971.468 1165.52 969.555 1165.35 967.64C1160.56 914.346 1135.16 647.392 1102.17 608.003Z" fill="#2F2E41"/>
<path d="M912.143 464.19C911.849 466.709 912.111 469.262 912.91 471.669C913.71 474.076 915.028 476.279 916.772 478.122C918.515 479.964 920.642 481.403 923.001 482.335C925.361 483.268 927.897 483.672 930.43 483.519L954.127 540.44L972.053 513.881L946.801 463.899C946.262 459.663 944.187 455.771 940.969 452.962C937.752 450.153 933.615 448.622 929.343 448.657C925.071 448.693 920.96 450.294 917.79 453.157C914.62 456.02 912.611 459.945 912.143 464.19Z" fill="#A0616A"/>
<path d="M1074.55 665.318C1077.07 665.017 1079.49 664.168 1081.65 662.829C1083.8 661.491 1085.64 659.697 1087.03 657.573C1088.41 655.449 1089.32 653.046 1089.67 650.535C1090.03 648.024 1089.83 645.466 1089.09 643.039L1138.95 606.742L1108.94 595.506L1066.19 631.697C1062.2 633.208 1058.89 636.132 1056.91 639.914C1054.93 643.696 1054.4 648.074 1055.43 652.219C1056.46 656.363 1058.98 659.985 1062.5 662.399C1066.02 664.814 1070.31 665.852 1074.55 665.318Z" fill="#A0616A"/>
<path d="M993.27 578.389C991.359 578.387 989.452 578.199 987.577 577.828C983.042 576.965 978.789 575 975.192 572.107C971.596 569.214 968.767 565.481 966.954 561.237L933.754 520.773C933.052 519.918 932.541 518.922 932.255 517.853C931.97 516.785 931.916 515.667 932.097 514.576C932.279 513.484 932.692 512.444 933.308 511.525C933.925 510.606 934.73 509.83 935.672 509.247L959.292 494.633C960.164 494.093 961.135 493.731 962.147 493.569C963.16 493.406 964.195 493.445 965.192 493.684C966.19 493.923 967.13 494.357 967.959 494.961C968.787 495.565 969.488 496.328 970.021 497.204L993.42 535.737L1038.23 502.634C1041.8 500.764 1045.92 500.24 1049.85 501.157C1053.77 502.074 1057.23 504.371 1059.6 507.628C1061.97 510.885 1063.08 514.886 1062.75 518.898C1062.41 522.911 1060.64 526.668 1057.75 529.482L1013.03 570.263C1007.77 575.47 1000.67 578.391 993.27 578.389Z" fill="#2F2E41"/>
<path d="M1114.36 639.244C1114.3 639.244 1114.24 639.244 1114.17 639.242C1113.09 639.216 1112.01 638.961 1111.03 638.494C1110.04 638.027 1109.17 637.359 1108.46 636.533L1087.46 612.045C1086.74 611.211 1086.21 610.235 1085.9 609.181C1085.59 608.127 1085.51 607.02 1085.66 605.932C1085.81 604.843 1086.19 603.8 1086.78 602.869C1087.36 601.938 1088.13 601.142 1089.05 600.533L1128.37 574.33L1092.75 531.521C1090.67 528.068 1089.91 523.985 1090.61 520.018C1091.3 516.05 1093.39 512.464 1096.51 509.914C1099.63 507.364 1103.56 506.02 1107.59 506.128C1111.61 506.236 1115.47 507.789 1118.44 510.502L1161.74 552.794C1165.15 555.905 1167.75 559.797 1169.32 564.135C1170.89 568.472 1171.39 573.126 1170.76 577.697C1170.14 582.268 1168.42 586.619 1165.74 590.378C1163.06 594.136 1159.51 597.189 1155.4 599.274L1120.01 636.806C1119.28 637.575 1118.41 638.188 1117.43 638.608C1116.46 639.027 1115.42 639.243 1114.36 639.244Z" fill="#2F2E41"/>
<path d="M1066.12 549.013C1065.78 549.013 1065.45 548.991 1065.11 548.949C1063.65 548.771 1062.27 548.178 1061.13 547.239C1060 546.301 1059.16 545.057 1058.71 543.654L1042.93 495.295C1042.53 494.073 1042.59 492.748 1043.1 491.567C1043.6 490.386 1044.52 489.428 1045.68 488.869L1046.19 488.628C1046.66 488.407 1047.12 488.189 1047.58 487.98C1054.94 484.569 1062.95 482.789 1071.06 482.764C1081.6 482.784 1091.89 485.876 1100.69 491.661C1101.87 492.446 1102.69 493.662 1102.98 495.047C1103.27 496.433 1103.01 497.878 1102.24 499.07L1072.64 545.425C1071.95 546.526 1070.98 547.432 1069.84 548.06C1068.7 548.687 1067.42 549.015 1066.12 549.013Z" fill="#E6E6E6"/>
<path d="M1125.6 396.132C1134.95 396.132 1142.54 388.549 1142.54 379.195C1142.54 369.842 1134.95 362.259 1125.6 362.259C1116.24 362.259 1108.65 369.842 1108.65 379.195C1108.65 388.549 1116.24 396.132 1125.6 396.132Z" fill="#2F2E41"/>
<path d="M1067.51 360.579C1055.61 360.579 1044.19 365.305 1035.77 373.718C1027.36 382.13 1022.63 393.54 1022.63 405.437V424.415H1045.98L1057.15 405.437L1060.5 424.415H1131.37L1112.39 405.437C1112.39 393.54 1107.66 382.13 1099.24 373.718C1090.83 365.305 1079.41 360.579 1067.51 360.579Z" fill="#2F2E41"/>
<path d="M1134.31 367.594C1136.18 361.738 1140.06 356.729 1145.26 353.449C1150.46 350.168 1156.66 348.827 1162.75 349.659C1173.55 351.463 1182.09 360.139 1187.18 369.829C1192.26 379.52 1194.61 390.365 1198.03 400.76C1201.45 411.156 1206.3 421.608 1214.94 428.337C1223.57 435.067 1236.82 436.892 1245.3 429.97C1244.33 437.184 1241.12 443.911 1236.11 449.2C1231.11 454.489 1224.57 458.072 1217.42 459.442C1210.26 460.812 1202.86 459.9 1196.26 456.834C1189.65 453.768 1184.18 448.705 1180.61 442.359C1176.13 434.403 1174.98 425.077 1173.65 416.047C1172.33 407.016 1170.6 397.673 1165.26 390.27C1159.92 382.868 1149.92 378.033 1141.43 381.405L1134.31 367.594Z" fill="#2F2E41"/>
<path d="M583.332 393.433C567.884 393.431 553.069 387.296 542.147 376.378C531.224 365.459 525.087 350.651 525.086 335.211C525.085 324.68 525.093 316.629 525.109 315.484C525.599 279.414 534.688 243.98 551.62 212.124C523.801 250.188 508.505 295.954 507.848 343.088C507.832 344.233 507.824 352.285 507.825 362.816C507.826 378.256 513.963 393.064 524.885 403.982C535.808 414.901 550.623 421.036 566.071 421.037C578.765 421.033 591.11 416.886 601.231 409.229C611.353 401.572 618.697 390.821 622.148 378.611C611.483 388.171 597.657 393.45 583.332 393.433Z" fill="#3F3D56"/>
<path d="M740.073 240.004C757.932 240.857 775.316 246.029 790.735 255.076C806.153 264.124 819.144 276.776 828.593 291.947C838.041 307.119 843.665 324.355 844.981 342.177C846.296 359.999 843.265 377.874 836.147 394.268C846.443 382.181 854.01 368.018 858.334 352.743C862.657 337.469 863.634 321.442 861.199 305.756C858.764 290.069 852.973 275.092 844.222 261.845C835.471 248.599 823.965 237.394 810.489 228.995C797.012 220.595 781.882 215.199 766.13 213.174C750.379 211.15 734.375 212.543 719.211 217.261C704.047 221.978 690.079 229.909 678.259 240.511C666.439 251.113 657.045 264.139 650.718 278.699C661.654 265.841 675.397 255.665 690.89 248.956C706.382 242.247 723.209 239.184 740.073 240.004Z" fill="#3F3D56"/>
<path d="M757.993 755.744C742.235 755.748 727.106 749.559 715.872 738.513C704.637 727.467 698.198 712.45 697.942 696.7C697.211 651.056 696.833 594.818 696.833 588.391C696.823 572.755 699.075 557.2 703.519 542.208L703.498 542.203C706.122 534.678 709.292 527.355 712.981 520.29C701.655 535.377 692.641 552.066 686.237 569.808L686.258 569.813C681.814 584.804 679.562 600.36 679.572 615.995C679.572 622.423 679.95 678.66 680.681 724.305C680.937 740.054 687.376 755.072 698.611 766.118C709.845 777.163 724.973 783.352 740.732 783.349C753.726 783.346 766.368 779.133 776.763 771.342C787.158 763.55 794.746 752.599 798.387 740.133C787.346 750.196 772.936 755.765 757.993 755.744Z" fill="#3F3D56"/>
<path d="M218.423 1005.13L239.584 1005.13L249.652 923.542L218.418 923.544L218.423 1005.13Z" fill="#FFB8B8"/>
<path d="M280.397 1024.77L213.889 1024.77L213.888 999.086L254.7 999.084C261.515 999.084 268.051 1001.79 272.87 1006.61C277.689 1011.42 280.397 1017.96 280.397 1024.77Z" fill="#2F2E41"/>
<path d="M142.475 1005.13L163.635 1005.13L173.703 923.542L142.469 923.544L142.475 1005.13Z" fill="#FFB8B8"/>
<path d="M204.448 1024.77L137.94 1024.77L137.939 999.086L178.751 999.084C185.566 999.084 192.102 1001.79 196.921 1006.61C201.74 1011.42 204.448 1017.96 204.448 1024.77Z" fill="#2F2E41"/>
<path d="M160.967 980.037L140.297 978.951C139.231 978.895 138.187 978.628 137.225 978.165C136.263 977.703 135.402 977.055 134.693 976.258C133.984 975.461 133.44 974.531 133.092 973.522C132.745 972.513 132.601 971.446 132.67 970.381L157.375 696.981L271.145 727.666L282.106 724.677L247.828 966.71C247.536 968.53 246.632 970.197 245.264 971.434C243.896 972.672 242.147 973.406 240.306 973.515L218.023 974.553C216.909 974.615 215.794 974.445 214.749 974.054C213.704 973.663 212.751 973.06 211.951 972.282C211.151 971.505 210.522 970.57 210.101 969.537C209.681 968.503 209.48 967.394 209.511 966.279L213.548 821.016C213.567 820.344 213.334 819.69 212.894 819.181C212.454 818.673 211.84 818.348 211.172 818.27C210.504 818.192 209.831 818.367 209.286 818.76C208.741 819.154 208.363 819.737 208.227 820.395L169.291 973.622C168.923 975.44 167.936 977.074 166.498 978.246C165.06 979.419 163.26 980.056 161.404 980.05C161.259 980.05 161.114 980.046 160.967 980.037Z" fill="#2F2E41"/>
<path d="M222.223 473.282C245.637 473.282 264.618 454.31 264.618 430.907C264.618 407.504 245.637 388.532 222.223 388.532C198.809 388.532 179.828 407.504 179.828 430.907C179.828 454.31 198.809 473.282 222.223 473.282Z" fill="#FFB8B8"/>
<path d="M151.638 555.402L156.299 655.93L157.984 692.504C158.052 694.096 158.592 695.632 159.538 696.915C160.483 698.199 161.79 699.171 163.291 699.708L272.616 739.292C273.499 739.62 274.435 739.784 275.377 739.776C276.453 739.781 277.52 739.569 278.513 739.153C279.507 738.737 280.406 738.125 281.157 737.354C281.908 736.583 282.497 735.669 282.887 734.665C283.277 733.662 283.46 732.591 283.427 731.515L278.945 550.761C278.65 535.931 273.189 521.668 263.501 510.432C253.814 499.196 240.508 491.689 225.878 489.207C224.82 489.046 223.744 488.885 222.669 488.741C213.596 487.616 204.388 488.491 195.69 491.305C186.993 494.119 179.018 498.804 172.327 505.03C165.398 511.4 159.954 519.213 156.379 527.917C152.804 536.621 151.185 546.004 151.638 555.402Z" fill="#CCCCCC"/>
<path d="M324.84 719.233C322.254 718.431 319.892 717.036 317.941 715.159C315.991 713.282 314.506 710.976 313.606 708.424C312.706 705.872 312.415 703.144 312.756 700.46C313.098 697.776 314.062 695.208 315.573 692.962L278.5 643.688L310.492 641.709L340.792 688.804C344.036 691.311 346.293 694.879 347.168 698.883C348.043 702.887 347.479 707.071 345.576 710.702C343.673 714.332 340.552 717.176 336.76 718.736C332.968 720.296 328.748 720.472 324.84 719.233Z" fill="#FFB8B8"/>
<path d="M298.774 684.046C297.791 683.647 296.898 683.058 296.145 682.312C295.392 681.566 294.795 680.679 294.388 679.7L238.534 546.69C237.438 544.086 236.866 541.291 236.851 538.466C236.836 535.641 237.378 532.841 238.447 530.225C239.515 527.609 241.089 525.23 243.078 523.222C245.067 521.215 247.432 519.619 250.038 518.526C252.644 517.432 255.441 516.863 258.267 516.85C261.094 516.837 263.895 517.382 266.511 518.451C269.127 519.521 271.507 521.096 273.514 523.086C275.52 525.075 277.115 527.441 278.207 530.046L334.061 663.058C334.886 665.03 334.896 667.249 334.087 669.228C333.277 671.207 331.716 672.784 329.745 673.614L304.949 684.016C303.972 684.429 302.924 684.644 301.864 684.649C300.804 684.654 299.754 684.449 298.774 684.046Z" fill="#CCCCCC"/>
<path d="M208.592 679.354L262.238 576.684C263.273 574.709 265.049 573.225 267.176 572.558C269.304 571.891 271.609 572.094 273.587 573.124L351.455 613.772C353.43 614.806 354.914 616.581 355.582 618.707C356.25 620.834 356.046 623.139 355.016 625.115L301.37 727.785C300.336 729.76 298.56 731.244 296.432 731.911C294.304 732.579 291.999 732.375 290.021 731.346L212.154 690.697C210.178 689.663 208.694 687.888 208.026 685.762C207.359 683.635 207.562 681.331 208.592 679.354Z" fill="#3F3D56"/>
<path d="M244.569 632.447C243.616 629.914 242.083 627.639 240.093 625.804C238.104 623.968 235.713 622.623 233.111 621.876C230.509 621.128 227.768 620.999 225.107 621.498C222.446 621.997 219.939 623.111 217.785 624.751L166.385 590.67L166.297 622.708L215.122 650.16C217.817 653.249 221.514 655.291 225.564 655.927C229.615 656.563 233.76 655.754 237.274 653.641C240.787 651.527 243.443 648.245 244.777 644.37C246.111 640.494 246.038 636.273 244.569 632.447Z" fill="#FFB8B8"/>
<path d="M179.581 639.651L137.573 606.392C133.029 604.866 128.923 602.262 125.607 598.801C122.291 595.341 119.865 591.127 118.537 586.524C117.209 581.92 117.019 577.062 117.983 572.368C118.946 567.675 121.035 563.285 124.069 559.576L162.211 509.612C164.862 506.374 168.59 504.199 172.713 503.482C176.836 502.766 181.08 503.556 184.668 505.709C188.256 507.863 190.949 511.235 192.255 515.209C193.561 519.184 193.392 523.495 191.779 527.355L161.6 576.699L205.95 597.725C206.982 598.214 207.898 598.916 208.637 599.784C209.377 600.653 209.924 601.669 210.242 602.765C210.56 603.861 210.641 605.011 210.481 606.141C210.321 607.271 209.923 608.353 209.313 609.318L191.41 637.637C190.805 638.593 190.006 639.411 189.064 640.038C188.123 640.666 187.06 641.088 185.944 641.279C185.9 641.287 185.855 641.294 185.811 641.3C184.715 641.466 183.597 641.405 182.525 641.121C181.454 640.838 180.452 640.337 179.581 639.651Z" fill="#CCCCCC"/>
<path d="M190.188 459.282C190.006 458.75 189.948 458.183 190.019 457.626C190.09 457.068 190.288 456.534 190.597 456.065C190.906 455.595 191.319 455.203 191.804 454.917C192.288 454.632 192.831 454.461 193.392 454.418C194.54 454.48 195.664 454.775 196.695 455.283C197.727 455.792 198.644 456.504 199.392 457.377C200.926 459.145 202.713 460.678 204.693 461.927C206.744 462.96 209.526 462.813 210.695 460.843C211.793 458.993 211.04 456.516 210.376 454.367C208.684 448.9 207.738 443.23 207.562 437.511C207.371 431.127 208.272 424.464 211.808 419.485C216.372 413.058 224.532 410.619 232.255 410.796C239.977 410.973 247.575 413.355 255.224 414.862C257.865 415.382 260.969 415.647 262.735 413.602C264.613 411.426 263.924 407.906 263.125 404.969C261.052 397.347 258.853 389.468 254.036 383.312C248.829 376.917 241.39 372.731 233.218 371.597C225.373 370.626 217.409 371.53 209.981 374.234C197.879 378.047 187.23 385.462 179.458 395.488C171.447 406.149 167.985 419.548 169.83 432.754C171.632 444.256 177.73 454.647 186.894 461.833L190.188 459.282Z" fill="#2F2E41"/>
<path d="M727.137 1005.47C715.857 1000.56 705.874 993.092 697.974 983.665C690.075 974.238 684.476 963.104 681.618 951.144C678.761 939.183 678.724 926.722 681.51 914.745C684.296 902.767 689.828 891.601 697.671 882.126C688.578 888.763 681.001 897.256 675.443 907.043C669.884 916.83 666.472 927.687 665.433 938.893C664.393 950.098 665.75 961.397 669.413 972.039C673.077 982.68 678.962 992.421 686.68 1000.62C694.397 1008.81 703.77 1015.27 714.177 1019.57C724.583 1023.86 735.785 1025.9 747.038 1025.54C758.291 1025.18 769.339 1022.43 779.448 1017.47C789.557 1012.52 798.496 1005.47 805.672 996.796C794.48 1004.97 781.34 1010.08 767.561 1011.6C753.782 1013.12 739.844 1011 727.137 1005.47Z" fill="#3F3D56"/>
</svg>
