<svg width="672" height="409" viewBox="0 0 672 409" fill="none" xmlns="http://www.w3.org/2000/svg">
<path d="M478.453 80.9577C489.742 77.3921 499.273 69.7024 505.144 59.422C505.725 58.403 507.276 59.3582 506.696 60.376C500.566 71.0626 490.631 79.0447 478.875 82.7293C477.755 83.0797 477.338 81.3062 478.453 80.9577Z" fill="white"/>
<path d="M638.734 59.8014C638.044 60.0488 637.353 60.2962 636.659 60.5584C627.396 63.9324 618.423 68.0533 609.828 72.8805C609.158 73.2431 608.484 73.6208 607.825 74.0019C587.242 85.8524 569.037 101.421 554.137 119.917C548.215 127.283 542.861 135.088 538.123 143.266C531.58 154.56 525.385 167.326 515.776 175.557C514.783 176.427 513.737 177.234 512.645 177.975L447.081 162.461C446.95 162.351 446.814 162.256 446.682 162.145L444.036 161.646C444.251 161.207 444.483 160.756 444.698 160.317C444.822 160.062 444.96 159.811 445.084 159.556C445.171 159.387 445.259 159.218 445.327 159.06C445.356 159.004 445.386 158.948 445.411 158.906C445.48 158.749 445.56 158.61 445.626 158.468C446.917 155.946 448.229 153.429 449.561 150.916C449.564 150.901 449.564 150.901 449.582 150.89C459.778 131.772 471.658 113.337 485.959 97.2923C486.39 96.8097 486.823 96.3119 487.283 95.8364C493.77 88.6398 500.833 81.9853 508.404 75.9394C512.56 72.6422 516.88 69.5575 521.348 66.6972C532.907 59.3287 545.553 53.8242 558.822 50.3855C585.275 43.5342 613.625 45.2194 636.961 58.7501C637.558 59.0967 638.141 59.4399 638.734 59.8014Z" fill="#F0F0F0"/>
<path d="M638.389 60.5985C604.206 59.3573 570.502 68.9183 542.063 87.9233C535.995 92.0319 530.197 96.7279 525.681 102.544C521.322 108.248 518.571 115.014 517.712 122.14C516.777 128.769 516.589 135.657 514.06 141.943C511.394 148.569 505.983 153.226 499.362 155.694C491.26 158.715 482.557 158.644 474.048 158.279C464.601 157.874 454.794 157.304 445.916 161.164C444.84 161.632 444.177 159.935 445.252 159.468C460.698 152.752 477.796 158.975 493.792 155.438C501.256 153.788 508.268 149.878 511.702 142.775C514.704 136.564 514.904 129.461 515.792 122.741C516.724 115.685 518.768 109.174 522.87 103.29C527.066 97.2714 532.693 92.3388 538.629 88.093C552.162 78.5655 567.109 71.2252 582.923 66.3408C600.939 60.6662 619.794 58.1155 638.671 58.7989C639.839 58.8416 639.55 60.641 638.389 60.5985Z" fill="white"/>
<path d="M550.86 81.2649C548.319 76.0606 547.711 70.1225 549.144 64.5111C550.577 58.8997 553.958 53.9805 558.684 50.6319C559.642 49.9576 560.735 51.4153 559.775 52.0905C555.369 55.2006 552.22 59.7832 550.896 65.0112C549.573 70.2393 550.161 75.7683 552.556 80.6005C553.075 81.6512 551.376 82.3096 550.86 81.2649Z" fill="white"/>
<path d="M517.743 118.717C528.904 122.667 541.143 122.265 552.021 117.592C553.098 117.128 553.761 118.824 552.685 119.288C541.356 124.13 528.619 124.522 517.014 120.386C515.908 119.991 516.643 118.324 517.743 118.717Z" fill="white"/>
<path d="M600.691 63.0683C601.254 65.2868 602.36 67.3306 603.908 69.0162C605.457 70.7018 607.4 71.9764 609.563 72.7255C610.673 73.1063 609.937 74.7727 608.834 74.3945C606.448 73.5557 604.304 72.1455 602.589 70.287C600.874 68.4284 599.64 66.1781 598.995 63.7328C598.915 63.5073 598.923 63.2599 599.019 63.0407C599.115 62.8215 599.291 62.647 599.51 62.5526C599.735 62.4658 599.986 62.4712 600.207 62.5678C600.428 62.6643 600.601 62.8442 600.691 63.0683Z" fill="white"/>
<path d="M70.1355 392.281C32.6016 374.992 1.79997 338.526 0.936523 297.21C36.4855 324.702 80.613 338.734 125.512 336.823C142.824 336.023 161.997 333.331 175.897 343.684C184.545 350.125 189.37 360.689 191.102 371.332C192.834 381.976 191.814 392.853 190.79 403.589L191.796 406.086C150.717 410.579 107.669 409.571 70.1355 392.281Z" fill="#F0F0F0"/>
<path d="M1.79321 297.075C19.2091 326.515 45.4581 349.718 76.8121 363.39C83.5471 366.278 90.6306 368.621 97.9648 369.281C105.119 369.869 112.299 368.531 118.761 365.405C124.844 362.612 130.744 359.05 137.4 357.784C144.416 356.449 151.257 358.488 156.911 362.728C163.828 367.915 168.469 375.278 172.757 382.636C177.519 390.806 182.335 399.368 190.378 404.755C191.353 405.408 190.283 406.882 189.31 406.23C175.315 396.857 171.318 379.107 159.703 367.554C154.283 362.163 147.206 358.372 139.374 359.319C132.525 360.147 126.438 363.815 120.303 366.696C113.861 369.722 107.278 371.519 100.11 371.244C92.7784 370.962 85.5884 368.891 78.809 366.188C63.4818 359.943 49.2317 351.327 36.5808 340.656C22.0749 328.557 9.7455 314.066 0.126131 297.81C-0.468869 296.803 1.20214 296.075 1.79321 297.075Z" fill="white"/>
<path d="M66.4574 359.582C63.4495 364.531 58.7802 368.25 53.2836 370.074C47.7869 371.898 41.8207 371.709 36.4506 369.541C35.3655 369.098 36.0021 367.391 37.0887 367.834C42.0856 369.863 47.6432 370.038 52.7582 368.329C57.8732 366.62 62.2087 363.139 64.9823 358.513C65.5863 357.509 67.0579 358.583 66.4574 359.582Z" fill="white"/>
<path d="M115.862 367.227C113.16 355.701 106.212 345.617 96.404 338.986C95.4317 338.33 96.5013 336.856 97.4723 337.511C107.666 344.43 114.875 354.939 117.661 366.94C117.926 368.084 116.126 368.365 115.862 367.227Z" fill="white"/>
<path d="M24.2309 327.47C25.7938 325.798 26.9168 323.763 27.4991 321.55C28.0814 319.336 28.1047 317.012 27.5671 314.788C27.2879 313.647 29.0882 313.367 29.3656 314.5C29.9482 316.961 29.9192 319.527 29.2813 321.974C28.6433 324.422 27.4158 326.675 25.7059 328.539C25.5595 328.728 25.3465 328.854 25.1103 328.892C24.8741 328.93 24.6324 328.876 24.4342 328.742C24.2397 328.6 24.1091 328.386 24.0711 328.148C24.033 327.91 24.0904 327.666 24.2309 327.47Z" fill="white"/>
<path d="M106.87 205.807C107.065 206.514 107.259 207.221 107.468 207.933C110.133 217.424 113.565 226.682 117.729 235.617C118.04 236.313 118.366 237.014 118.696 237.699C128.958 259.119 143.108 278.447 160.426 294.701C167.323 301.163 174.702 307.091 182.499 312.433C193.267 319.81 205.528 326.952 213.01 337.155C213.803 338.21 214.529 339.314 215.185 340.46L194.764 404.664C194.644 404.787 194.539 404.915 194.419 405.038L193.721 407.639C193.3 407.392 192.868 407.126 192.447 406.879C192.202 406.736 191.961 406.579 191.716 406.437C191.554 406.337 191.393 406.237 191.241 406.156C191.187 406.124 191.133 406.09 191.093 406.062C190.942 405.981 190.809 405.89 190.672 405.814C188.255 404.336 185.844 402.838 183.439 401.32C183.425 401.315 183.425 401.315 183.415 401.297C165.121 389.687 147.637 376.448 132.717 360.976C132.269 360.51 131.805 360.041 131.366 359.546C124.679 352.535 118.577 344.988 113.12 336.983C110.146 332.59 107.397 328.049 104.882 323.378C98.4074 311.296 93.8736 298.27 91.4467 284.779C86.6126 257.884 90.4338 229.743 105.688 207.495C106.079 206.926 106.465 206.371 106.87 205.807Z" fill="#F0F0F0"/>
<path d="M107.64 206.21C103.821 240.201 110.809 274.532 127.612 304.325C131.251 310.686 135.496 316.822 140.955 321.764C146.312 326.541 152.852 329.796 159.893 331.19C166.432 332.622 173.286 333.33 179.363 336.327C185.769 339.486 190.004 345.233 191.965 352.022C194.365 360.328 193.638 369.001 192.632 377.458C191.514 386.848 190.205 396.583 193.384 405.728C193.769 406.836 192.027 407.369 191.643 406.262C186.112 390.353 193.608 373.774 191.289 357.556C190.208 349.988 186.839 342.701 180.015 338.741C174.048 335.279 166.98 334.543 160.347 333.15C153.381 331.687 147.043 329.158 141.486 324.623C135.801 319.984 131.308 314.001 127.522 307.761C119.044 293.547 112.853 278.089 109.177 261.952C104.879 243.558 103.76 224.564 105.867 205.793C105.997 204.631 107.77 205.056 107.64 206.21Z" fill="white"/>
<path d="M121.637 295.05C116.256 297.191 110.289 297.349 104.802 295.496C99.3145 293.643 94.6646 289.9 91.6824 284.935C91.0824 283.929 92.6185 282.949 93.2193 283.957C95.9878 288.585 100.319 292.071 105.433 293.786C110.546 295.501 116.103 295.332 121.103 293.309C122.19 292.871 122.718 294.614 121.637 295.05Z" fill="white"/>
<path d="M156.481 330.901C161.263 320.07 161.787 307.835 157.948 296.636C157.567 295.527 159.308 294.993 159.689 296.101C163.662 307.763 163.091 320.494 158.09 331.754C157.613 332.827 156.007 331.968 156.481 330.901Z" fill="white"/>
<path d="M107.256 243.988C109.51 243.593 111.632 242.645 113.43 241.228C115.227 239.811 116.645 237.97 117.555 235.87C118.019 234.792 119.625 235.652 119.164 236.723C118.148 239.039 116.58 241.07 114.597 242.64C112.614 244.21 110.277 245.271 107.79 245.729C107.559 245.792 107.313 245.764 107.102 245.652C106.89 245.54 106.73 245.352 106.652 245.126C106.583 244.895 106.607 244.646 106.72 244.433C106.833 244.22 107.025 244.06 107.256 243.988Z" fill="white"/>
<path d="M476.555 279.86C435.162 279.86 390.18 273.709 345.501 261.88C290.249 247.253 239.589 225.175 198.998 198.032L200.2 196.234C240.596 223.246 291.031 245.223 346.055 259.789C395.778 272.953 445.875 279.053 490.91 277.443L490.988 279.604C486.232 279.775 481.421 279.861 476.555 279.86Z" fill="#F0F0F0"/>
<path d="M571.517 266.257L570.824 264.208C607.844 251.691 630.999 231.528 637.786 205.896C646.412 173.312 627.671 135.5 585.017 99.4256C542.145 63.1679 480.322 33.0832 410.936 14.7143L411.489 12.623C481.179 31.0727 543.302 61.3132 586.413 97.7742C629.742 134.418 648.729 173.013 639.877 206.449C632.896 232.816 609.258 253.497 571.517 266.257Z" fill="#F0F0F0"/>
<path d="M231.58 280.764C150.244 244.691 87.5691 197.89 55.1006 148.982L56.9025 147.786C89.1466 196.355 151.493 242.878 232.457 278.787L231.58 280.764Z" fill="#F0F0F0"/>
<path d="M517.549 343.258C509.16 343.258 500.627 343.071 491.951 342.696L492.044 340.535C556.79 343.338 613.917 335.59 657.259 318.124L658.068 320.13C620.259 335.365 572.069 343.258 517.549 343.258Z" fill="#F0F0F0"/>
<path d="M425.723 283.105C384.33 283.105 339.348 276.953 294.669 265.125C239.417 250.498 188.757 228.419 148.166 201.276L149.368 199.479C189.764 226.49 240.199 248.468 295.223 263.034C344.946 276.198 395.043 282.298 440.078 280.688L440.156 282.849C435.4 283.02 430.589 283.105 425.723 283.105Z" fill="#F0F0F0"/>
<path d="M520.685 269.502L519.992 267.453C557.012 254.936 580.167 234.772 586.953 209.141C595.579 176.556 576.839 138.745 534.185 102.67C491.313 66.4125 429.49 36.3278 360.104 17.959L360.657 15.8677C430.347 34.3173 492.47 64.5578 535.581 101.019C578.909 137.662 597.897 176.258 589.045 209.694C582.064 236.061 558.426 256.742 520.685 269.502Z" fill="#F0F0F0"/>
<path d="M180.747 284.009C99.4114 247.935 36.7361 201.135 4.26758 152.227L6.06946 151.03C38.3136 199.599 100.66 246.123 181.624 282.031L180.747 284.009Z" fill="#F0F0F0"/>
<path d="M466.717 346.503C458.328 346.503 449.795 346.315 441.119 345.941L441.212 343.78C505.958 346.583 563.085 338.834 606.427 321.368L607.236 323.375C569.427 338.61 521.237 346.503 466.717 346.503Z" fill="#F0F0F0"/>
<path d="M204.635 162.772C200.191 162.777 195.93 164.545 192.787 167.688C189.644 170.831 187.876 175.092 187.871 179.536C181.498 226.465 179.369 273.872 181.511 321.183C181.639 324.204 181.78 326.967 181.943 329.633C182.181 334.035 182.483 338.682 182.841 343.448C183.046 346.259 183.263 349.079 183.5 351.89C183.897 356.467 184.333 361.119 184.797 365.714C185.089 368.522 185.391 371.343 185.715 374.152C186.337 379.671 187.04 385.328 187.867 391.447C187.858 395.903 189.62 400.18 192.765 403.337C195.909 406.494 200.179 408.274 204.635 408.283H485.837C490.282 408.278 494.543 406.511 497.686 403.368C500.828 400.225 502.596 395.964 502.601 391.519L502.614 391.403C503.867 385.697 505.033 379.881 506.082 374.117C506.643 371.079 507.127 368.319 507.562 365.681C508.351 360.877 509.053 356.228 509.647 351.862C510.053 348.931 510.42 346.093 510.738 343.423C511.262 339.054 511.735 334.538 512.186 329.616C512.432 326.94 512.658 324.177 512.877 321.169V321.168C516.316 273.748 512.858 226.08 502.614 179.653L502.601 179.536C502.596 175.092 500.828 170.831 497.686 167.688C494.543 164.545 490.282 162.777 485.837 162.772L204.635 162.772Z" fill="#3F3D56"/>
<path d="M356.153 234.54C295.224 234.54 230.66 229.004 146.161 217.927H146.152C141.772 217.921 137.548 216.299 134.29 213.37C131.032 210.442 128.969 206.414 128.498 202.059C128.421 201.404 128.383 200.745 128.386 200.086V149.254C128.384 149.145 128.389 149.036 128.401 148.928C128.496 144.258 130.415 139.81 133.747 136.536C137.079 133.261 141.56 131.421 146.232 131.408C293.242 111.42 382.545 111.422 544.307 131.412H544.314C548.983 131.443 553.455 133.299 556.774 136.582C560.093 139.866 561.995 144.318 562.075 148.986C562.085 149.075 562.088 149.164 562.086 149.254V200.086C562.089 200.747 562.051 201.408 561.974 202.064C561.496 206.431 559.42 210.466 556.147 213.395C552.873 216.324 548.633 217.94 544.24 217.932C474.352 229.003 417.069 234.54 356.153 234.54Z" fill="#F6781E"/>
<path d="M365.928 269.846H328.959C324.254 269.84 319.743 267.969 316.416 264.642C313.089 261.315 311.217 256.804 311.212 252.098V117.79C311.217 113.085 313.089 108.574 316.416 105.247C319.743 101.92 324.254 100.048 328.959 100.043H365.928C370.633 100.048 375.144 101.92 378.471 105.247C381.798 108.574 383.67 113.085 383.675 117.79V252.098C383.67 256.804 381.798 261.315 378.471 264.642C375.144 267.969 370.633 269.84 365.928 269.846Z" fill="#3F3D56"/>
<path d="M449.859 74.343C449.592 71.825 449.12 69.333 448.45 66.8912C447.726 64.4447 446.81 62.0593 445.71 59.7575C441.766 51.2948 435.114 44.3879 426.806 40.1289C416.494 35.0526 404.698 34.6372 393.611 37.083C384.291 39.1706 375.54 43.2679 367.967 49.0888C364.042 52.0467 360.455 55.4296 357.272 59.1759C353.987 63.1174 347.876 73.9467 347.436 74.9493C343.981 67.1052 339.023 60.0136 332.843 54.0745C325.659 47.2558 317.084 42.0734 307.707 38.8836C302.722 37.204 297.547 36.152 292.301 35.7521C286.751 35.2906 281.162 35.7782 275.775 37.1939C266.099 39.9037 257.73 46.0218 252.211 54.4191C246.953 62.2236 244.37 71.5245 244.852 80.9229C245.118 85.6681 246.141 90.3401 247.883 94.7622C248.816 97.1559 249.924 99.4783 251.195 101.711C252.511 103.916 253.983 106.024 255.599 108.02C261.939 115.801 270.48 121.488 280.104 124.338C290.378 127.513 301.277 127.617 311.843 126.126C322.692 124.595 333.136 121.083 343.355 117.236C344.718 116.723 346.075 116.195 347.435 115.672C356.519 119.167 365.681 122.538 375.19 124.677C385.888 127.261 396.992 127.706 407.862 125.987C417.995 124.324 427.416 119.722 434.956 112.753C441.933 106.187 446.816 97.708 448.992 88.3784C450.067 83.7817 450.36 79.0369 449.859 74.343ZM309.021 115.678C303.157 116.429 297.223 116.464 291.351 115.781C287.142 115.171 283.018 114.073 279.063 112.51C269.741 108.628 262.309 101.249 258.36 91.9547C257.179 89.0245 256.339 85.9687 255.854 82.8471C255.544 80.0699 255.543 77.2668 255.852 74.4893C256.312 71.5673 257.1 68.7065 258.201 65.9611C259.392 63.291 260.871 60.7588 262.612 58.4096C264.3 56.3076 266.208 54.3917 268.302 52.6944C270.288 51.2258 272.424 49.9737 274.676 48.9595C277.364 47.9099 280.159 47.162 283.012 46.7297C286.876 46.302 290.777 46.3324 294.634 46.8205C299.223 47.5291 303.715 48.7673 308.02 50.5102C312.598 52.4973 316.925 55.0199 320.909 58.0253C324.596 60.9462 327.938 64.2779 330.87 67.9559C333.773 71.8172 336.208 76.0095 338.122 80.4448C339.983 85.0721 341.291 89.9033 342.017 94.8377L342.025 94.9099C341.742 97.3891 341.6 99.8824 341.601 102.378C341.602 103.339 341.644 104.299 341.693 105.259C341.236 105.699 340.855 106.211 340.566 106.775C333.032 109.731 325.31 112.18 317.45 114.106C314.664 114.749 311.854 115.273 309.021 115.678ZM439.039 82.8469C438.555 85.9689 437.714 89.0251 436.533 91.9556C432.603 101.263 425.165 108.648 415.83 112.51C411.875 114.073 407.751 115.171 403.542 115.781C397.659 116.465 391.715 116.429 385.84 115.674C375.406 114.182 365.34 110.888 355.494 107.212C355.089 107.061 354.687 106.901 354.282 106.749C354.007 106.193 353.643 105.686 353.204 105.249C353.377 101.766 353.269 98.2757 352.88 94.8106C353.608 89.8856 354.913 85.0637 356.771 80.4448C358.686 76.0097 361.12 71.8175 364.023 67.9564C366.955 64.2782 370.297 60.9463 373.984 58.0253C377.969 55.0199 382.295 52.4973 386.874 50.5102C391.178 48.7673 395.67 47.5291 400.26 46.8205C404.116 46.3325 408.017 46.302 411.881 46.7297C414.734 47.162 417.53 47.9099 420.217 48.9595C422.469 49.9738 424.606 51.226 426.592 52.6947C428.686 54.392 430.593 56.3079 432.281 58.4099C434.022 60.7591 435.501 63.2912 436.692 65.9612C437.794 68.7065 438.582 71.5673 439.042 74.4893C439.351 77.2667 439.35 80.0697 439.039 82.8469Z" fill="#3F3D56"/>
<path d="M234.919 275.794C238.503 275.794 241.408 272.889 241.408 269.305C241.408 265.721 238.503 262.816 234.919 262.816C231.335 262.816 228.43 265.721 228.43 269.305C228.43 272.889 231.335 275.794 234.919 275.794Z" fill="#F6781E"/>
<path d="M281.425 259.571C285.009 259.571 287.914 256.666 287.914 253.082C287.914 249.498 285.009 246.593 281.425 246.593C277.841 246.593 274.936 249.498 274.936 253.082C274.936 256.666 277.841 259.571 281.425 259.571Z" fill="#F6781E"/>
<path d="M260.876 310.404C264.46 310.404 267.365 307.498 267.365 303.915C267.365 300.331 264.46 297.425 260.876 297.425C257.292 297.425 254.387 300.331 254.387 303.915C254.387 307.498 257.292 310.404 260.876 310.404Z" fill="#F6781E"/>
<path d="M453.391 275.794C456.975 275.794 459.88 272.889 459.88 269.305C459.88 265.721 456.975 262.816 453.391 262.816C449.807 262.816 446.901 265.721 446.901 269.305C446.901 272.889 449.807 275.794 453.391 275.794Z" fill="#F6781E"/>
<path d="M406.885 259.571C410.469 259.571 413.374 256.666 413.374 253.082C413.374 249.498 410.469 246.593 406.885 246.593C403.301 246.593 400.396 249.498 400.396 253.082C400.396 256.666 403.301 259.571 406.885 259.571Z" fill="#F6781E"/>
<path d="M427.434 310.404C431.018 310.404 433.923 307.498 433.923 303.915C433.923 300.331 431.018 297.425 427.434 297.425C423.85 297.425 420.944 300.331 420.944 303.915C420.944 307.498 423.85 310.404 427.434 310.404Z" fill="#F6781E"/>
<path d="M458.799 389.356C462.383 389.356 465.288 386.451 465.288 382.867C465.288 379.283 462.383 376.378 458.799 376.378C455.215 376.378 452.31 379.283 452.31 382.867C452.31 386.451 455.215 389.356 458.799 389.356Z" fill="#F6781E"/>
<path d="M475.022 342.85C478.606 342.85 481.512 339.945 481.512 336.361C481.512 332.777 478.606 329.872 475.022 329.872C471.439 329.872 468.533 332.777 468.533 336.361C468.533 339.945 471.439 342.85 475.022 342.85Z" fill="#F6781E"/>
<path d="M424.189 363.399C427.773 363.399 430.679 360.494 430.679 356.91C430.679 353.326 427.773 350.421 424.189 350.421C420.606 350.421 417.7 353.326 417.7 356.91C417.7 360.494 420.606 363.399 424.189 363.399Z" fill="#F6781E"/>
<path d="M272.772 389.356C276.356 389.356 279.262 386.451 279.262 382.867C279.262 379.283 276.356 376.378 272.772 376.378C269.189 376.378 266.283 379.283 266.283 382.867C266.283 386.451 269.189 389.356 272.772 389.356Z" fill="#F6781E"/>
<path d="M288.996 342.85C292.58 342.85 295.485 339.945 295.485 336.361C295.485 332.777 292.58 329.872 288.996 329.872C285.412 329.872 282.507 332.777 282.507 336.361C282.507 339.945 285.412 342.85 288.996 342.85Z" fill="#F6781E"/>
<path d="M238.163 363.399C241.747 363.399 244.652 360.494 244.652 356.91C244.652 353.326 241.747 350.421 238.163 350.421C234.579 350.421 231.674 353.326 231.674 356.91C231.674 360.494 234.579 363.399 238.163 363.399Z" fill="#F6781E"/>
<path d="M194.671 98.4509C196.331 96.3685 197.426 93.8939 197.852 91.2653C198.277 88.6368 198.019 85.9429 197.101 83.4434C194.667 77.0441 188.359 73.1087 182.46 69.637L165.005 59.3735L167.67 69.0718C169.586 76.0464 171.583 83.1915 175.841 89.0444C180.098 94.8974 187.159 99.2558 194.324 98.2379" fill="#F2F2F2"/>
<path d="M604.577 400.202C606.236 398.12 607.331 395.645 607.757 393.017C608.182 390.388 607.924 387.694 607.006 385.195C604.573 378.796 598.264 374.86 592.365 371.389L574.91 361.125L577.576 370.823C579.492 377.798 581.489 384.943 585.746 390.796C590.004 396.649 597.065 401.007 604.229 399.989" fill="#F2F2F2"/>
<path d="M274.936 17.3047C279.714 17.3047 283.588 13.4309 283.588 8.65237C283.588 3.8738 279.714 0 274.936 0C270.157 0 266.283 3.8738 266.283 8.65237C266.283 13.4309 270.157 17.3047 274.936 17.3047Z" fill="#F6781E"/>
<path d="M44.5664 272.55C49.345 272.55 53.2188 268.676 53.2188 263.897C53.2188 259.119 49.345 255.245 44.5664 255.245C39.7879 255.245 35.9141 259.119 35.9141 263.897C35.9141 268.676 39.7879 272.55 44.5664 272.55Z" fill="#F6781E"/>
<path d="M639.417 202.249C644.196 202.249 648.069 198.375 648.069 193.597C648.069 188.818 644.196 184.944 639.417 184.944C634.638 184.944 630.765 188.818 630.765 193.597C630.765 198.375 634.638 202.249 639.417 202.249Z" fill="#F6781E"/>
<path d="M35.9141 55.1588C40.6927 55.1588 44.5665 51.285 44.5665 46.5064C44.5665 41.7278 40.6927 37.854 35.9141 37.854C31.1355 37.854 27.2617 41.7278 27.2617 46.5064C27.2617 51.285 31.1355 55.1588 35.9141 55.1588Z" fill="#E6E6E6"/>
<path d="M571.279 301.751C576.058 301.751 579.932 297.878 579.932 293.099C579.932 288.321 576.058 284.447 571.279 284.447C566.501 284.447 562.627 288.321 562.627 293.099C562.627 297.878 566.501 301.751 571.279 301.751Z" fill="#E6E6E6"/>
<path d="M588.584 38.9356C593.363 38.9356 597.236 35.0618 597.236 30.2832C597.236 25.5047 593.363 21.6309 588.584 21.6309C583.805 21.6309 579.932 25.5047 579.932 30.2832C579.932 35.0618 583.805 38.9356 588.584 38.9356Z" fill="#E6E6E6"/>
<path d="M209.207 176.548C208.459 177.731 206.646 177.559 205.627 176.819C204.214 175.792 204.671 173.814 205.645 172.646C208.739 168.932 213.856 172.853 214.546 176.542C214.802 178.34 214.526 180.174 213.749 181.817C212.973 183.459 211.732 184.838 210.18 185.782C206.65 187.873 202.064 186.824 199.029 184.321C192.698 179.098 194.422 168.642 201.454 164.863C205.942 162.452 211.616 163.51 216.037 165.53C221.014 167.804 225.293 171.289 229.895 174.194C239.993 180.515 251.416 184.415 263.271 185.591C265.347 185.802 265.332 182.556 263.271 182.346C256.702 181.667 250.252 180.114 244.093 177.728C238 175.258 232.216 172.084 226.861 168.27C221.442 164.556 215.781 160.947 209.075 160.334C206.369 160.018 203.627 160.424 201.129 161.511C198.63 162.598 196.464 164.327 194.851 166.523C193.416 168.487 192.455 170.758 192.045 173.156C191.634 175.554 191.784 178.014 192.483 180.345C193.326 182.782 194.799 184.952 196.753 186.634C198.707 188.316 201.072 189.451 203.607 189.922C206.047 190.383 208.57 190.071 210.825 189.029C213.079 187.988 214.953 186.269 216.183 184.111C218.652 179.842 218.571 174.108 214.843 170.569C213.775 169.483 212.437 168.7 210.966 168.3C209.496 167.9 207.946 167.897 206.474 168.293C205.118 168.751 203.925 169.594 203.041 170.719C202.157 171.845 201.62 173.203 201.496 174.629C201.136 180.17 209.002 182.941 212.009 178.185C213.128 176.415 210.321 174.785 209.207 176.548Z" fill="#3F3D56"/>
<path d="M486.674 176.548C487.422 177.731 489.235 177.559 490.254 176.819C491.667 175.792 491.21 173.815 490.236 172.646C487.142 168.932 482.025 172.853 481.335 176.542C481.078 178.34 481.355 180.174 482.131 181.817C482.908 183.459 484.149 184.838 485.701 185.782C489.231 187.873 493.816 186.824 496.851 184.321C503.182 179.098 501.459 168.642 494.426 164.863C489.939 162.452 484.265 163.51 479.844 165.53C474.867 167.804 470.588 171.289 465.986 174.194C455.888 180.515 444.465 184.415 432.61 185.591C430.534 185.802 430.549 182.556 432.61 182.346C439.179 181.667 445.629 180.114 451.787 177.728C457.881 175.258 463.664 172.084 469.02 168.27C474.439 164.556 480.1 160.947 486.806 160.334C489.512 160.018 492.254 160.424 494.752 161.511C497.25 162.598 499.416 164.327 501.03 166.523C502.465 168.487 503.425 170.758 503.836 173.156C504.247 175.554 504.097 178.014 503.398 180.345C502.555 182.782 501.082 184.952 499.128 186.634C497.174 188.316 494.809 189.451 492.274 189.922C489.834 190.383 487.31 190.071 485.056 189.029C482.801 187.988 480.928 186.269 479.697 184.111C477.229 179.842 477.309 174.108 481.038 170.569C482.106 169.483 483.444 168.7 484.914 168.3C486.385 167.9 487.935 167.897 489.407 168.293C490.762 168.751 491.955 169.594 492.84 170.719C493.724 171.845 494.261 173.203 494.385 174.629C494.745 180.17 486.879 182.941 483.872 178.185C482.753 176.415 485.56 174.785 486.674 176.548Z" fill="#3F3D56"/>
<path d="M631.66 262.087L627.374 267.464L612.217 258.498L616.503 253.121L631.66 262.087Z" fill="#E4E4E4"/>
<path d="M647.475 285.188L651.26 290.837L635.337 298.757L631.552 293.108L647.475 285.188Z" fill="#E4E4E4"/>
<path d="M663.958 260.631L671.522 260.899L670.769 276.726L663.204 276.459L663.958 260.631Z" fill="#E4E4E4"/>
</svg>
