<svg width="628" height="356" viewBox="0 0 628 356" fill="none" xmlns="http://www.w3.org/2000/svg">
<path d="M96.98 115.83H18.38C8.25 115.83 0 107.59 0 97.4502V18.8502C0 8.72021 8.24 0.470215 18.38 0.470215H96.98C107.11 0.470215 115.36 8.71021 115.36 18.8502V97.4502C115.36 107.58 107.12 115.83 96.98 115.83ZM18.38 2.48022C9.35 2.48022 2 9.83021 2 18.8602V97.4602C2 106.49 9.35 113.84 18.38 113.84H96.98C106.01 113.84 113.36 106.49 113.36 97.4602V18.8602C113.36 9.83021 106.01 2.48022 96.98 2.48022H18.38Z" fill="#F6781E"/>
<path d="M267.66 115.83H189.06C178.93 115.83 170.68 107.59 170.68 97.4502V18.8502C170.68 8.72021 178.92 0.470215 189.06 0.470215H267.66C277.79 0.470215 286.04 8.71021 286.04 18.8502V97.4502C286.04 107.58 277.8 115.83 267.66 115.83ZM189.06 2.47021C180.03 2.47021 172.68 9.82021 172.68 18.8502V97.4502C172.68 106.48 180.03 113.83 189.06 113.83H267.66C276.69 113.83 284.04 106.48 284.04 97.4502V18.8502C284.04 9.82021 276.69 2.47021 267.66 2.47021H189.06Z" fill="#F6781E"/>
<path d="M267.66 329.9H189.06C178.93 329.9 170.68 321.66 170.68 311.52V232.92C170.68 222.79 178.92 214.54 189.06 214.54H267.66C277.79 214.54 286.04 222.78 286.04 232.92V311.52C286.04 321.65 277.8 329.9 267.66 329.9ZM189.06 216.54C180.03 216.54 172.68 223.89 172.68 232.92V311.52C172.68 320.55 180.03 327.9 189.06 327.9H267.66C276.69 327.9 284.04 320.55 284.04 311.52V232.92C284.04 223.89 276.69 216.54 267.66 216.54H189.06Z" fill="#F6781E"/>
<path d="M96.98 329.9H18.38C8.25 329.9 0 321.66 0 311.52V232.92C0 222.79 8.24 214.54 18.38 214.54H96.98C107.11 214.54 115.36 222.78 115.36 232.92V311.52C115.36 321.65 107.12 329.9 96.98 329.9ZM18.38 216.54C9.35 216.54 2 223.89 2 232.92V311.52C2 320.55 9.35 327.9 18.38 327.9H96.98C106.01 327.9 113.36 320.55 113.36 311.52V232.92C113.36 223.89 106.01 216.54 96.98 216.54H18.38Z" fill="#F6781E"/>
<path d="M111.03 242.97C123.903 242.97 134.34 232.534 134.34 219.66C134.34 206.786 123.903 196.35 111.03 196.35C98.156 196.35 87.7197 206.786 87.7197 219.66C87.7197 232.534 98.156 242.97 111.03 242.97Z" fill="#F6781E"/>
<path d="M438.34 115.83H359.74C349.61 115.83 341.36 107.59 341.36 97.4502V18.8502C341.36 8.72021 349.6 0.470215 359.74 0.470215H438.34C448.47 0.470215 456.72 8.71021 456.72 18.8502V97.4502C456.72 107.58 448.48 115.83 438.34 115.83ZM359.74 2.47021C350.71 2.47021 343.36 9.82021 343.36 18.8502V97.4502C343.36 106.48 350.71 113.83 359.74 113.83H438.34C447.37 113.83 454.72 106.48 454.72 97.4502V18.8502C454.72 9.82021 447.37 2.47021 438.34 2.47021H359.74Z" fill="#F6781E"/>
<path d="M78.2099 139.83H31.3199C27.6499 139.83 24.6699 136.85 24.6699 133.18C24.6699 129.51 27.6499 126.53 31.3199 126.53H78.2099C81.8799 126.53 84.8599 129.51 84.8599 133.18C84.8599 136.85 81.8799 139.83 78.2099 139.83Z" fill="#3F3D56"/>
<path d="M251.8 139.83H204.91C201.24 139.83 198.26 136.85 198.26 133.18C198.26 129.51 201.24 126.53 204.91 126.53H251.8C255.47 126.53 258.45 129.51 258.45 133.18C258.45 136.85 255.47 139.83 251.8 139.83Z" fill="#3F3D56"/>
<path d="M425.4 139.83H378.51C374.84 139.83 371.86 136.85 371.86 133.18C371.86 129.51 374.84 126.53 378.51 126.53H425.4C429.07 126.53 432.05 129.51 432.05 133.18C432.05 136.85 429.07 139.83 425.4 139.83Z" fill="#3F3D56"/>
<path d="M438.34 331.9H359.74C349.61 331.9 341.36 323.66 341.36 313.52V234.92C341.36 224.79 349.6 216.54 359.74 216.54H438.34C448.47 216.54 456.72 224.78 456.72 234.92V313.52C456.72 323.65 448.48 331.9 438.34 331.9ZM359.74 218.54C350.71 218.54 343.36 225.89 343.36 234.92V313.52C343.36 322.55 350.71 329.9 359.74 329.9H438.34C447.37 329.9 454.72 322.55 454.72 313.52V234.92C454.72 225.89 447.37 218.54 438.34 218.54H359.74Z" fill="#F6781E"/>
<path d="M425.4 355.89H378.51C374.84 355.89 371.86 352.91 371.86 349.24C371.86 345.57 374.84 342.59 378.51 342.59H425.4C429.07 342.59 432.05 345.57 432.05 349.24C432.05 352.91 429.07 355.89 425.4 355.89Z" fill="#3F3D56"/>
<path d="M609.03 115.83H530.43C520.3 115.83 512.05 107.59 512.05 97.4502V18.8502C512.05 8.72021 520.29 0.470215 530.43 0.470215H609.03C619.16 0.470215 627.41 8.71021 627.41 18.8502V97.4502C627.41 107.58 619.17 115.83 609.03 115.83ZM530.43 2.47021C521.4 2.47021 514.05 9.82021 514.05 18.8502V97.4502C514.05 106.48 521.4 113.83 530.43 113.83H609.03C618.06 113.83 625.41 106.48 625.41 97.4502V18.8502C625.41 9.82021 618.06 2.47021 609.03 2.47021H530.43Z" fill="#F6781E"/>
<path d="M596.08 139.83H549.19C545.52 139.83 542.54 136.85 542.54 133.18C542.54 129.51 545.52 126.53 549.19 126.53H596.08C599.75 126.53 602.73 129.51 602.73 133.18C602.73 136.85 599.75 139.83 596.08 139.83Z" fill="#3F3D56"/>
<path d="M78.2099 353.89H31.3199C27.6499 353.89 24.6699 350.91 24.6699 347.24C24.6699 343.57 27.6499 340.59 31.3199 340.59H78.2099C81.8799 340.59 84.8599 343.57 84.8599 347.24C84.8599 350.91 81.8799 353.89 78.2099 353.89Z" fill="#3F3D56"/>
<path d="M251.8 353.89H204.91C201.24 353.89 198.26 350.91 198.26 347.24C198.26 343.57 201.24 340.59 204.91 340.59H251.8C255.47 340.59 258.45 343.57 258.45 347.24C258.45 350.91 255.47 353.89 251.8 353.89Z" fill="#3F3D56"/>
</svg>
