<svg width="898" height="586" viewBox="0 0 898 586" fill="none" xmlns="http://www.w3.org/2000/svg">
<g clip-path="url(#clip0_2_31)">
<path d="M596.985 536.185L595.867 534.526C597.52 533.413 599.16 532.283 600.789 531.137L601.94 532.773C600.301 533.927 598.649 535.064 596.985 536.185Z" fill="#CCCCCC"/>
<path d="M435.632 585.991L435.618 583.991C439.662 583.962 443.75 583.849 447.768 583.655L447.864 585.653C443.819 585.848 439.703 585.962 435.632 585.991ZM423.397 585.828C419.336 585.69 415.226 585.466 411.179 585.161L411.33 583.167C415.349 583.47 419.432 583.693 423.465 583.829L423.397 585.828ZM460.068 584.811L459.889 582.818C463.903 582.458 467.966 582.008 471.965 581.479L472.227 583.462C468.2 583.994 464.109 584.448 460.068 584.811ZM398.999 583.989C394.957 583.515 390.879 582.95 386.878 582.31L387.194 580.335C391.167 580.971 395.218 581.532 399.232 582.003L398.999 583.989ZM484.319 581.607L483.975 579.637C487.943 578.943 491.955 578.155 495.897 577.293L496.324 579.248C492.354 580.115 488.315 580.909 484.319 581.607ZM374.839 580.125C370.859 579.317 366.843 578.413 362.901 577.438L363.381 575.496C367.296 576.464 371.285 577.362 375.237 578.166L374.839 580.125ZM508.219 576.386L507.711 574.451C511.611 573.426 515.542 572.303 519.395 571.115L519.985 573.026C516.105 574.223 512.146 575.353 508.219 576.386ZM351.059 574.241C347.157 573.099 343.223 571.857 339.365 570.55L340.007 568.655C343.838 569.954 347.746 571.188 351.62 572.321L351.059 574.241ZM531.598 569.173L530.929 567.289C534.729 565.939 538.552 564.49 542.292 562.981L543.04 564.836C539.274 566.355 535.425 567.814 531.598 569.173ZM327.84 566.369C324.043 564.9 320.229 563.332 316.505 561.708L317.304 559.875C321.003 561.488 324.791 563.045 328.562 564.504L327.84 566.369ZM554.29 560.021L553.464 558.2C557.142 556.533 560.83 554.768 564.426 552.953L565.328 554.738C561.707 556.566 557.993 558.343 554.29 560.021ZM305.377 556.576C301.722 554.796 298.055 552.914 294.478 550.982L295.428 549.222C298.981 551.141 302.623 553.01 306.253 554.778L305.377 556.576ZM576.135 548.998L575.159 547.252C578.683 545.284 582.21 543.216 585.645 541.106L586.692 542.81C583.234 544.935 579.682 547.017 576.135 548.998ZM283.824 544.937C280.335 542.859 276.839 540.678 273.433 538.452L274.528 536.778C277.91 538.988 281.382 541.155 284.846 543.218L283.824 544.937ZM263.325 531.542C260.022 529.182 256.722 526.717 253.514 524.217L254.743 522.64C257.929 525.123 261.208 527.571 264.488 529.915L263.325 531.542ZM244.018 516.492C240.918 513.861 237.834 511.132 234.852 508.38L236.208 506.91C239.17 509.644 242.233 512.355 245.312 514.967L244.018 516.492ZM226.033 499.896C223.164 497.02 220.318 494.045 217.574 491.054L219.047 489.702C221.773 492.672 224.6 495.627 227.449 498.484L226.033 499.896ZM209.49 481.871C206.874 478.771 204.286 475.572 201.796 472.361L203.376 471.135C205.849 474.325 208.42 477.502 211.018 480.581L209.49 481.871ZM194.505 462.54C192.153 459.231 189.84 455.829 187.63 452.426L189.307 451.336C191.502 454.715 193.799 458.095 196.135 461.381L194.505 462.54ZM181.183 442.037C179.116 438.544 177.095 434.962 175.177 431.39L176.939 430.443C178.844 433.992 180.851 437.549 182.904 441.018L181.183 442.037ZM169.623 420.502C167.856 416.853 166.143 413.115 164.53 409.395L166.366 408.6C167.967 412.294 169.668 416.006 171.423 419.631L169.623 420.502ZM159.91 398.087C158.453 394.298 157.059 390.429 155.765 386.586L157.66 385.948C158.945 389.764 160.33 393.606 161.776 397.369L159.91 398.087Z" fill="#CCCCCC"/>
<path d="M152.072 374.803C151.514 372.878 150.974 370.945 150.454 369.004L152.386 368.486C152.903 370.414 153.438 372.334 153.993 374.246L152.072 374.803Z" fill="#CCCCCC"/>
<path d="M722.693 260.388C722.472 258.403 722.231 256.425 721.97 254.453L723.952 254.19C724.215 256.176 724.458 258.168 724.681 260.166L722.693 260.388Z" fill="#CCCCCC"/>
<path d="M696.816 421.656L695.02 420.776C696.738 417.267 698.407 413.672 699.983 410.093L701.813 410.898C700.227 414.503 698.546 418.122 696.816 421.656ZM706.368 399.945L704.507 399.215C705.934 395.577 707.306 391.858 708.584 388.163L710.474 388.816C709.187 392.538 707.806 396.282 706.368 399.945ZM714.122 377.53L712.207 376.954C713.334 373.205 714.398 369.386 715.37 365.604L717.307 366.102C716.329 369.91 715.257 373.754 714.122 377.53ZM720.023 354.555L718.067 354.137C718.884 350.314 719.634 346.421 720.295 342.567L722.267 342.905C721.601 346.786 720.846 350.706 720.023 354.555ZM724.035 331.174L722.052 330.916C722.556 327.045 722.988 323.104 723.336 319.203L725.328 319.38C724.978 323.309 724.543 327.276 724.035 331.174ZM726.145 307.543L724.148 307.446C724.338 303.547 724.453 299.584 724.488 295.667L726.488 295.684C726.452 299.628 726.337 303.619 726.145 307.543ZM724.36 283.882C724.24 279.972 724.039 276.014 723.762 272.118L725.757 271.977C726.035 275.899 726.238 279.884 726.359 283.82L724.36 283.882Z" fill="#CCCCCC"/>
<path d="M688.486 437.432L686.747 436.445C687.729 434.713 688.695 432.971 689.643 431.218L691.402 432.169C690.448 433.935 689.476 435.689 688.486 437.432Z" fill="#CCCCCC"/>
<path d="M170.673 167.929L168.867 167.068C169.732 165.255 170.614 163.453 171.514 161.661L173.301 162.558C172.407 164.338 171.531 166.129 170.673 167.929Z" fill="#CCCCCC"/>
<path d="M178.886 151.989L177.137 151.018C179.076 147.524 181.114 144.025 183.193 140.617L184.901 141.659C182.835 145.043 180.812 148.519 178.886 151.989ZM682.95 143.063C680.907 139.671 678.763 136.271 676.577 132.958L678.247 131.856C680.448 135.192 682.607 138.616 684.664 142.03L682.95 143.063ZM191.335 131.582L189.672 130.471C191.891 127.149 194.209 123.827 196.562 120.599L198.179 121.777C195.842 124.983 193.539 128.282 191.335 131.582ZM669.795 123.122C667.477 119.903 665.062 116.69 662.615 113.571L664.189 112.336C666.652 115.477 669.084 118.712 671.418 121.953L669.795 123.122ZM205.417 112.262L203.85 111.018C206.334 107.888 208.916 104.768 211.523 101.745L213.037 103.051C210.448 106.054 207.884 109.152 205.417 112.262ZM655.051 104.32C652.475 101.299 649.805 98.2929 647.114 95.3852L648.581 94.0268C651.291 96.9545 653.98 99.9809 656.573 103.022L655.051 104.32ZM221.028 94.1597L219.568 92.7925C222.295 89.8789 225.123 86.98 227.97 84.1773L229.373 85.6021C226.545 88.3863 223.737 91.2656 221.028 94.1597ZM638.818 86.7813C636.008 83.9834 633.101 81.2046 630.177 78.522L631.529 77.0484C634.473 79.7496 637.4 82.5474 640.229 85.3643L638.818 86.7813ZM238.061 77.3936L236.717 75.9122C239.674 73.2305 242.727 70.5723 245.793 68.0118L247.075 69.547C244.03 72.0899 240.997 74.73 238.061 77.3936ZM621.205 70.6221C618.174 68.0611 615.049 65.5284 611.917 63.0943L613.145 61.5152C616.298 63.9659 619.444 66.5162 622.496 69.0948L621.205 70.6221ZM256.402 62.0753L255.183 60.4893C258.348 58.0587 261.608 55.6593 264.873 53.3575L266.025 54.9923C262.782 57.2783 259.545 59.6617 256.402 62.0753ZM602.329 55.9517C599.098 53.6466 595.776 51.3775 592.455 49.2076L593.549 47.5333C596.892 49.7183 600.237 52.0025 603.49 54.3238L602.329 55.9517ZM275.929 48.3096L274.845 46.6289C278.198 44.4654 281.643 42.3413 285.084 40.3159L286.098 42.0396C282.681 44.0513 279.26 46.1606 275.929 48.3096ZM582.311 42.8741C578.905 40.8428 575.407 38.8536 571.915 36.962L572.867 35.2032C576.384 37.108 579.906 39.1109 583.335 41.1563L582.311 42.8741ZM296.515 36.192L295.573 34.4283C299.095 32.5455 302.702 30.712 306.293 28.9786L307.163 30.7794C303.596 32.501 300.014 34.3223 296.515 36.192ZM561.283 31.482C557.709 29.733 554.058 28.0386 550.432 26.4458L551.237 24.6148C554.888 26.2183 558.563 27.9243 562.162 29.6861L561.283 31.482ZM318.022 25.8116L317.227 23.9756C320.888 22.3921 324.632 20.8623 328.358 19.4292L329.076 21.2964C325.376 22.7193 321.657 24.2383 318.022 25.8116ZM539.382 21.8614C535.685 20.417 531.906 19.0294 528.149 17.7378L528.799 15.8462C532.582 17.147 536.388 18.544 540.11 19.9986L539.382 21.8614ZM340.305 17.2422L339.665 15.3477C343.448 14.0694 347.306 12.8545 351.129 11.7368L351.69 13.6568C347.893 14.7666 344.063 15.9732 340.305 17.2422ZM516.753 14.0826C512.946 12.9478 509.063 11.8775 505.214 10.9019L505.705 8.96341C509.581 9.94584 513.49 11.023 517.324 12.1656L516.753 14.0826ZM363.212 10.5445L362.73 8.60306C366.604 7.64261 370.547 6.75052 374.449 5.95267L374.85 7.91167C370.975 8.70464 367.059 9.59036 363.212 10.5445ZM493.55 8.20218C489.679 7.38968 485.728 6.64554 481.805 5.98978L482.135 4.01712C486.084 4.67728 490.063 5.42679 493.961 6.24512L493.55 8.20218ZM386.606 5.75784L386.286 3.78323C390.227 3.14456 394.237 2.57961 398.202 2.10403L398.44 4.08939C394.502 4.56205 390.52 5.12356 386.606 5.75784ZM469.979 4.26321C466.052 3.772 462.053 3.35453 458.093 3.02347L458.259 1.0303C462.247 1.36379 466.274 1.78373 470.228 2.27884L469.979 4.26321ZM410.333 2.90822L410.176 0.914078C414.155 0.601078 418.197 0.365239 422.189 0.213379L422.264 2.21193C418.3 2.36283 414.285 2.59669 410.333 2.90822ZM446.165 2.26955C442.204 2.1006 438.184 2.00977 434.216 2L434.221 0C438.216 0.00977 442.263 0.10109 446.25 0.2715L446.165 2.26955Z" fill="#CCCCCC"/>
<path d="M691.768 158.784C690.847 157.015 689.908 155.257 688.952 153.509L690.706 152.549C691.669 154.309 692.614 156.079 693.542 157.86L691.768 158.784Z" fill="#CCCCCC"/>
<path d="M878.5 460.999H862.44V513.319C862.434 517.826 860.64 522.146 857.454 525.333C854.267 528.52 849.947 530.313 845.44 530.319H444.5V537.999C444.505 543.037 446.508 547.867 450.07 551.429C453.632 554.991 458.462 556.994 463.5 556.999H878.5C883.538 556.994 888.368 554.991 891.93 551.429C895.492 547.867 897.495 543.037 897.5 537.999V479.999C897.495 474.961 895.492 470.131 891.93 466.569C888.368 463.007 883.538 461.004 878.5 460.999Z" fill="#F2F2F2"/>
<path d="M845.44 436.319H430.44C425.402 436.324 420.572 438.327 417.01 441.889C413.448 445.451 411.445 450.281 411.44 455.319V513.319C411.445 518.357 413.448 523.187 417.01 526.749C420.572 530.311 425.402 532.314 430.44 532.319H845.44C850.478 532.314 855.308 530.311 858.87 526.749C862.432 523.187 864.435 518.357 864.44 513.319V455.319C864.435 450.281 862.432 445.451 858.87 441.889C855.308 438.327 850.478 436.324 845.44 436.319ZM862.44 513.319C862.434 517.826 860.64 522.146 857.454 525.333C854.267 528.52 849.947 530.313 845.44 530.319H430.44C425.933 530.313 421.613 528.52 418.426 525.333C415.239 522.146 413.446 517.826 413.44 513.319V455.319C413.446 450.812 415.239 446.492 418.426 443.305C421.613 440.118 425.933 438.325 430.44 438.319H845.44C849.947 438.325 854.267 440.118 857.454 443.305C860.64 446.492 862.434 450.812 862.44 455.319V513.319Z" fill="#3F3D56"/>
<path d="M503.272 452.322C496.943 452.322 490.756 454.199 485.493 457.715C480.231 461.231 476.129 466.229 473.707 472.076C471.285 477.923 470.652 484.357 471.886 490.565C473.121 496.772 476.169 502.474 480.644 506.949C485.119 511.424 490.821 514.472 497.029 515.707C503.236 516.942 509.67 516.308 515.517 513.886C521.365 511.464 526.362 507.362 529.878 502.1C533.395 496.838 535.271 490.651 535.271 484.322C535.262 475.838 531.887 467.704 525.888 461.705C519.889 455.706 511.755 452.331 503.272 452.322Z" fill="#F6781E"/>
<path d="M796.61 511.322H567.61C565.489 511.322 563.454 510.479 561.953 508.979C560.453 507.478 559.61 505.444 559.61 503.322C559.61 501.2 560.453 499.165 561.953 497.665C563.454 496.165 565.489 495.322 567.61 495.322H796.61C798.732 495.322 800.767 496.165 802.267 497.665C803.767 499.165 804.61 501.2 804.61 503.322C804.61 505.444 803.767 507.478 802.267 508.979C800.767 510.479 798.732 511.322 796.61 511.322Z" fill="#CCCCCC"/>
<path d="M681.61 477.322H567.61C565.489 477.322 563.454 476.479 561.953 474.979C560.453 473.478 559.61 471.444 559.61 469.322C559.61 467.2 560.453 465.165 561.953 463.665C563.454 462.165 565.489 461.322 567.61 461.322H681.61C683.732 461.322 685.767 462.165 687.267 463.665C688.767 465.165 689.61 467.2 689.61 469.322C689.61 471.444 688.767 473.478 687.267 474.979C685.767 476.479 683.732 477.322 681.61 477.322Z" fill="#CCCCCC"/>
<path d="M501.101 498.314C500.275 498.315 499.47 498.048 498.808 497.552L498.767 497.521L490.129 490.913C489.321 490.294 488.793 489.379 488.659 488.37C488.526 487.36 488.799 486.339 489.418 485.531C490.038 484.723 490.953 484.195 491.962 484.061C492.971 483.928 493.992 484.201 494.8 484.821L500.395 489.111L513.616 471.863C513.923 471.463 514.305 471.127 514.741 470.875C515.178 470.623 515.659 470.459 516.159 470.393C516.658 470.327 517.166 470.36 517.653 470.49C518.14 470.621 518.596 470.845 518.996 471.152L518.997 471.153L518.915 471.267L518.999 471.153C519.806 471.773 520.334 472.688 520.467 473.696C520.6 474.705 520.327 475.726 519.709 476.534L504.158 496.812C503.798 497.28 503.336 497.658 502.806 497.917C502.277 498.177 501.695 498.311 501.105 498.309L501.101 498.314Z" fill="white"/>
<path d="M446.008 211H442.215C442.287 211.77 442.323 212.559 442.323 213.365V317.282C442.312 325.356 439.104 333.097 433.402 338.806C427.701 344.516 419.972 347.729 411.909 347.74H56V348.958C56 349.747 56.0358 350.535 56.0891 351.323C56.6886 359.92 60.5206 367.969 66.8121 373.847C73.1037 379.726 81.3869 382.996 89.9916 383H446.008C455.021 382.992 463.662 379.403 470.035 373.02C476.408 366.638 479.992 357.984 480 348.958V245.042C479.992 236.016 476.408 227.362 470.035 220.98C463.662 214.597 455.021 211.008 446.008 211Z" fill="#F2F2F2"/>
<path d="M445.911 211.677C445.311 203.08 441.48 195.031 435.188 189.153C428.896 183.274 420.613 180.003 412.008 180H55.9916C46.9789 180.008 38.3378 183.597 31.9649 189.98C25.592 196.362 22.0082 205.016 22 214.042V317.958C22.0082 326.984 25.592 335.638 31.9649 342.02C38.3378 348.403 46.9789 351.992 55.9916 352H412.008C421.021 351.992 429.662 348.403 436.035 342.02C442.408 335.638 445.992 326.984 446 317.958V214.042C446 213.253 445.964 212.465 445.911 211.677ZM442.422 317.958C442.411 326.033 439.203 333.773 433.501 339.483C427.8 345.193 420.071 348.405 412.008 348.417H55.9916C47.9289 348.405 40.1997 345.193 34.4985 339.483C28.7974 333.773 25.5895 326.033 25.5781 317.958V214.042C25.5895 205.967 28.7974 198.227 34.4985 192.517C40.1997 186.807 47.9289 183.595 55.9916 183.583H412.008C419.661 183.594 427.029 186.491 432.645 191.697C438.261 196.903 441.714 204.036 442.314 211.677C442.386 212.447 442.422 213.235 442.422 214.042V317.958Z" fill="#3F3D56"/>
<path d="M320.754 311H146.246C142.467 311 138.844 309.472 136.172 306.753C133.501 304.034 132 300.346 132 296.5C132 292.654 133.501 288.966 136.172 286.247C138.844 283.528 142.467 282 146.246 282H320.754C324.533 282 328.156 283.528 330.828 286.247C333.499 288.966 335 292.654 335 296.5C335 300.346 333.499 304.034 330.828 306.753C328.156 309.472 324.533 311 320.754 311Z" fill="#CCCCCC"/>
<path d="M267.714 249H146.286C142.497 249 138.863 247.525 136.184 244.899C133.505 242.274 132 238.713 132 235C132 231.287 133.505 227.726 136.184 225.1C138.863 222.475 142.497 221 146.286 221H267.714C271.503 221 275.137 222.475 277.816 225.1C280.495 227.726 282 231.287 282 235C282 238.713 280.495 242.274 277.816 244.899C275.137 247.525 271.503 249 267.714 249Z" fill="#CCCCCC"/>
</g>
<defs>
<clipPath id="clip0_2_31">
<rect width="897.5" height="585.991" fill="white"/>
</clipPath>
</defs>
</svg>
