<svg width="367" height="562" viewBox="0 0 367 562" fill="none" xmlns="http://www.w3.org/2000/svg">
<path d="M270.611 354.662L297.556 401.331L324.5 448H216.723L243.667 401.331L270.611 354.662Z" fill="#F6781E"/>
<path d="M117.5 263H4.5V376H117.5V263Z" fill="#E6E6E6"/>
<path d="M198.5 191C238.541 191 271 158.541 271 118.5C271 78.4594 238.541 46 198.5 46C158.459 46 126 78.4594 126 118.5C126 158.541 158.459 191 198.5 191Z" fill="#F6781E"/>
<path d="M263.75 239.556C263.75 237.183 264.454 234.863 265.772 232.889C267.091 230.916 268.965 229.378 271.158 228.469C273.35 227.561 275.763 227.324 278.091 227.787C280.419 228.25 282.557 229.392 284.235 231.071C285.914 232.749 287.056 234.887 287.519 237.215C287.982 239.543 287.745 241.955 286.837 244.148C285.928 246.341 284.39 248.215 282.417 249.534C280.443 250.852 278.123 251.556 275.75 251.556C272.567 251.556 269.515 250.292 267.265 248.041C265.014 245.791 263.75 242.739 263.75 239.556ZM265.75 239.556C265.75 241.534 266.336 243.467 267.435 245.112C268.534 246.756 270.096 248.038 271.923 248.795C273.75 249.552 275.761 249.75 277.701 249.364C279.641 248.978 281.423 248.026 282.821 246.627C284.22 245.229 285.172 243.447 285.558 241.507C285.944 239.567 285.746 237.556 284.989 235.729C284.232 233.902 282.95 232.34 281.306 231.241C279.661 230.142 277.728 229.556 275.75 229.556C273.098 229.556 270.554 230.61 268.679 232.485C266.804 234.36 265.75 236.904 265.75 239.556Z" fill="#CCCCCC"/>
<path d="M160.436 448.293L142.772 429.355L161.71 411.691L179.374 430.629L160.436 448.293ZM145.588 429.453L160.534 445.477L176.558 430.531L161.612 414.507L145.588 429.453Z" fill="#CCCCCC"/>
<path d="M14.55 178.887L0.173981 163.474L15.591 149.1L29.967 164.513L14.55 178.887ZM2.465 163.554L14.634 176.6L27.676 164.435L15.511 151.393L2.465 163.554Z" fill="#CCCCCC"/>
<path d="M216.5 200C196.722 200 177.388 194.135 160.943 183.147C144.498 172.159 131.681 156.541 124.112 138.268C116.543 119.996 114.563 99.8891 118.421 80.491C122.28 61.0929 131.804 43.2746 145.789 29.2893C159.775 15.3041 177.593 5.78001 196.991 1.92149C216.389 -1.93704 236.496 0.0432978 254.768 7.61206C273.041 15.1808 288.659 27.9981 299.647 44.443C310.635 60.8879 316.5 80.2219 316.5 100C316.5 126.522 305.964 151.957 287.211 170.711C268.457 189.464 243.022 200 216.5 200ZM216.5 2.00002C197.117 2.00002 178.17 7.74761 162.054 18.516C145.938 29.2844 133.377 44.5899 125.96 62.497C118.542 80.4042 116.602 100.109 120.383 119.119C124.164 138.129 133.498 155.591 147.204 169.296C160.909 183.002 178.371 192.336 197.381 196.117C216.391 199.898 236.096 197.958 254.003 190.54C271.91 183.123 287.216 170.562 297.984 154.446C308.752 138.33 314.5 119.383 314.5 100C314.5 74.0088 304.175 49.0821 285.796 30.7036C267.418 12.325 242.491 2.00002 216.5 2.00002Z" fill="#3F3D56"/>
<path d="M154.941 177.804L129.108 231.567L130.911 232.433L156.743 178.67L154.941 177.804Z" fill="#3F3D56"/>
<path d="M148.977 303.118L148.025 304.877L261.813 366.458L262.765 364.699L148.977 303.118Z" fill="#3F3D56"/>
<path d="M149.5 377H3.5V231H149.5V377ZM5.5 375H147.5V233H5.5V375Z" fill="#3F3D56"/>
<path d="M366.01 449H214.991L290.5 318.214L366.01 449ZM218.455 447H362.545L290.5 322.214L218.455 447Z" fill="#3F3D56"/>
<path d="M103.297 445.425C111.551 445.425 118.242 438.734 118.242 430.48C118.242 422.226 111.551 415.535 103.297 415.535C95.0431 415.535 88.352 422.226 88.352 430.48C88.352 438.734 95.0431 445.425 103.297 445.425Z" fill="#F6781E"/>
<path d="M59.61 561.539C67.8639 561.539 74.555 554.848 74.555 546.594C74.555 538.34 67.8639 531.649 59.61 531.649C51.3561 531.649 44.665 538.34 44.665 546.594C44.665 554.848 51.3561 561.539 59.61 561.539Z" fill="#F6781E"/>
<path d="M95.75 504.364C95.75 501.991 96.4538 499.671 97.7724 497.697C99.0909 495.724 100.965 494.186 103.158 493.277C105.351 492.369 107.763 492.132 110.091 492.595C112.419 493.058 114.557 494.201 116.235 495.879C117.914 497.557 119.056 499.695 119.519 502.023C119.982 504.351 119.745 506.764 118.837 508.956C117.928 511.149 116.39 513.023 114.417 514.342C112.443 515.66 110.123 516.364 107.75 516.364C104.567 516.364 101.515 515.1 99.2647 512.849C97.0143 510.599 95.75 507.547 95.75 504.364ZM97.75 504.364C97.75 506.342 98.3365 508.275 99.4353 509.92C100.534 511.564 102.096 512.846 103.923 513.603C105.75 514.36 107.761 514.558 109.701 514.172C111.641 513.786 113.423 512.834 114.821 511.435C116.22 510.037 117.172 508.255 117.558 506.315C117.944 504.375 117.746 502.364 116.989 500.537C116.232 498.71 114.95 497.148 113.306 496.049C111.661 494.951 109.728 494.364 107.75 494.364C105.098 494.364 102.554 495.418 100.679 497.293C98.8036 499.168 97.75 501.712 97.75 504.364Z" fill="#CCCCCC"/>
<path d="M59.61 467.324C59.61 464.951 60.3138 462.631 61.6324 460.657C62.9509 458.684 64.8251 457.146 67.0178 456.237C69.2105 455.329 71.6233 455.092 73.9511 455.555C76.2789 456.018 78.417 457.16 80.0953 458.839C81.7735 460.517 82.9164 462.655 83.3794 464.983C83.8424 467.311 83.6048 469.723 82.6965 471.916C81.7883 474.109 80.2502 475.983 78.2768 477.302C76.3034 478.62 73.9834 479.324 71.61 479.324C68.4274 479.324 65.3751 478.06 63.1247 475.809C60.8743 473.559 59.61 470.507 59.61 467.324ZM61.61 467.324C61.61 469.302 62.1965 471.235 63.2953 472.88C64.3941 474.524 65.9559 475.806 67.7831 476.563C69.6104 477.32 71.6211 477.518 73.5609 477.132C75.5007 476.746 77.2825 475.794 78.6811 474.395C80.0796 472.997 81.032 471.215 81.4178 469.275C81.8037 467.335 81.6057 465.324 80.8488 463.497C80.0919 461.67 78.8102 460.108 77.1657 459.009C75.5212 457.91 73.5878 457.324 71.61 457.324C68.9578 457.324 66.4143 458.378 64.5389 460.253C62.6635 462.128 61.61 464.672 61.61 467.324Z" fill="#CCCCCC"/>
</svg>
