<svg width="898" height="586" viewBox="0 0 898 586" fill="none" xmlns="http://www.w3.org/2000/svg">
<g clip-path="url(#clip0_25_116)">
<path d="M596.985 536.185L595.867 534.526C597.52 533.413 599.16 532.283 600.789 531.137L601.94 532.773C600.301 533.927 598.649 535.064 596.985 536.185Z" fill="#F6781E"/>
<path d="M435.632 585.991L435.618 583.991C439.662 583.962 443.75 583.849 447.768 583.655L447.864 585.653C443.819 585.848 439.703 585.962 435.632 585.991ZM423.397 585.828C419.337 585.69 415.226 585.466 411.18 585.161L411.33 583.167C415.349 583.47 419.432 583.693 423.465 583.829L423.397 585.828ZM460.068 584.811L459.889 582.818C463.903 582.458 467.966 582.008 471.965 581.479L472.227 583.462C468.2 583.994 464.109 584.448 460.068 584.811ZM398.999 583.989C394.957 583.515 390.879 582.95 386.879 582.31L387.194 580.335C391.168 580.971 395.218 581.532 399.232 582.003L398.999 583.989ZM484.319 581.607L483.975 579.637C487.943 578.943 491.955 578.155 495.897 577.293L496.324 579.248C492.354 580.115 488.315 580.909 484.319 581.607ZM374.839 580.125C370.859 579.317 366.843 578.413 362.901 577.438L363.381 575.496C367.296 576.464 371.285 577.362 375.237 578.166L374.839 580.125ZM508.22 576.386L507.711 574.451C511.611 573.426 515.542 572.303 519.395 571.115L519.985 573.026C516.105 574.223 512.147 575.353 508.22 576.386ZM351.059 574.241C347.157 573.099 343.223 571.857 339.365 570.55L340.007 568.655C343.838 569.954 347.746 571.188 351.62 572.321L351.059 574.241ZM531.598 569.173L530.929 567.289C534.729 565.939 538.552 564.49 542.292 562.981L543.04 564.836C539.274 566.355 535.425 567.814 531.598 569.173ZM327.84 566.369C324.043 564.9 320.229 563.332 316.505 561.708L317.304 559.875C321.003 561.488 324.791 563.045 328.562 564.504L327.84 566.369ZM554.29 560.021L553.464 558.2C557.142 556.533 560.83 554.768 564.426 552.953L565.328 554.738C561.707 556.566 557.993 558.343 554.29 560.021ZM305.377 556.576C301.722 554.796 298.055 552.914 294.478 550.982L295.428 549.222C298.981 551.141 302.623 553.01 306.253 554.778L305.377 556.576ZM576.135 548.998L575.16 547.252C578.683 545.284 582.211 543.216 585.645 541.106L586.692 542.81C583.234 544.935 579.682 547.017 576.135 548.998ZM283.824 544.937C280.335 542.859 276.839 540.678 273.433 538.452L274.528 536.778C277.91 538.988 281.382 541.155 284.847 543.218L283.824 544.937ZM263.325 531.542C260.022 529.182 256.722 526.717 253.514 524.217L254.744 522.64C257.929 525.123 261.208 527.571 264.488 529.915L263.325 531.542ZM244.018 516.492C240.918 513.861 237.834 511.132 234.852 508.38L236.208 506.91C239.17 509.644 242.233 512.355 245.312 514.967L244.018 516.492ZM226.033 499.896C223.164 497.02 220.318 494.045 217.574 491.054L219.047 489.702C221.773 492.672 224.6 495.627 227.449 498.484L226.033 499.896ZM209.49 481.871C206.874 478.771 204.286 475.572 201.796 472.361L203.376 471.135C205.849 474.325 208.421 477.502 211.018 480.581L209.49 481.871ZM194.505 462.54C192.153 459.231 189.84 455.829 187.63 452.426L189.307 451.336C191.502 454.715 193.8 458.095 196.135 461.381L194.505 462.54ZM181.183 442.037C179.116 438.544 177.095 434.962 175.177 431.39L176.94 430.443C178.844 433.992 180.851 437.549 182.905 441.018L181.183 442.037ZM169.623 420.502C167.856 416.853 166.143 413.115 164.53 409.395L166.366 408.6C167.967 412.294 169.668 416.006 171.423 419.631L169.623 420.502ZM159.91 398.087C158.453 394.298 157.059 390.429 155.765 386.586L157.66 385.948C158.945 389.764 160.33 393.606 161.776 397.369L159.91 398.087Z" fill="#F6781E"/>
<path d="M152.072 374.803C151.513 372.878 150.974 370.945 150.454 369.004L152.386 368.486C152.902 370.414 153.438 372.334 153.993 374.246L152.072 374.803Z" fill="#F6781E"/>
<path d="M722.693 260.388C722.472 258.403 722.231 256.425 721.97 254.453L723.952 254.19C724.215 256.176 724.458 258.168 724.681 260.166L722.693 260.388Z" fill="#F6781E"/>
<path d="M696.816 421.656L695.02 420.776C696.738 417.267 698.407 413.672 699.983 410.093L701.813 410.898C700.227 414.503 698.546 418.122 696.816 421.656ZM706.368 399.945L704.507 399.215C705.934 395.577 707.306 391.858 708.584 388.163L710.474 388.816C709.187 392.538 707.806 396.282 706.368 399.945ZM714.122 377.53L712.207 376.954C713.334 373.205 714.398 369.386 715.37 365.604L717.307 366.102C716.329 369.91 715.257 373.754 714.122 377.53ZM720.023 354.555L718.067 354.137C718.884 350.314 719.634 346.421 720.295 342.567L722.267 342.905C721.601 346.786 720.846 350.706 720.023 354.555ZM724.035 331.174L722.052 330.916C722.556 327.045 722.988 323.104 723.336 319.203L725.328 319.38C724.978 323.309 724.543 327.276 724.035 331.174ZM726.145 307.543L724.148 307.446C724.338 303.547 724.453 299.584 724.488 295.667L726.488 295.684C726.452 299.628 726.337 303.619 726.145 307.543ZM724.36 283.882C724.24 279.972 724.039 276.014 723.762 272.118L725.757 271.977C726.035 275.899 726.238 279.884 726.359 283.82L724.36 283.882Z" fill="#F6781E"/>
<path d="M688.486 437.432L686.747 436.445C687.729 434.713 688.695 432.971 689.643 431.218L691.402 432.169C690.448 433.935 689.476 435.689 688.486 437.432Z" fill="#F6781E"/>
<path d="M170.673 167.929L168.867 167.068C169.731 165.255 170.614 163.453 171.514 161.661L173.301 162.558C172.407 164.338 171.531 166.129 170.673 167.929Z" fill="#F6781E"/>
<path d="M178.886 151.989L177.138 151.018C179.077 147.524 181.114 144.025 183.194 140.617L184.901 141.659C182.836 145.043 180.812 148.519 178.886 151.989ZM682.951 143.063C680.908 139.671 678.764 136.271 676.578 132.958L678.247 131.856C680.448 135.192 682.607 138.616 684.664 142.03L682.951 143.063ZM191.336 131.582L189.673 130.471C191.892 127.149 194.21 123.827 196.563 120.599L198.179 121.777C195.842 124.983 193.54 128.282 191.336 131.582ZM669.796 123.122C667.477 119.903 665.062 116.69 662.616 113.571L664.19 112.336C666.652 115.477 669.085 118.712 671.419 121.953L669.796 123.122ZM205.417 112.262L203.851 111.018C206.335 107.888 208.916 104.768 211.523 101.745L213.038 103.051C210.448 106.054 207.884 109.152 205.417 112.262ZM655.051 104.32C652.476 101.299 649.805 98.2929 647.114 95.3852L648.582 94.0268C651.291 96.9545 653.98 99.9809 656.573 103.022L655.051 104.32ZM221.028 94.1597L219.568 92.7925C222.296 89.8789 225.123 86.98 227.971 84.1773L229.374 85.6021C226.545 88.3863 223.737 91.2656 221.028 94.1597ZM638.818 86.7813C636.008 83.9834 633.101 81.2046 630.177 78.522L631.529 77.0484C634.473 79.7496 637.4 82.5474 640.229 85.3643L638.818 86.7813ZM238.061 77.3936L236.717 75.9122C239.674 73.2305 242.728 70.5723 245.793 68.0118L247.075 69.547C244.03 72.0899 240.998 74.73 238.061 77.3936ZM621.205 70.6221C618.174 68.0611 615.05 65.5284 611.918 63.0943L613.145 61.5152C616.298 63.9659 619.445 66.5162 622.496 69.0948L621.205 70.6221ZM256.402 62.0753L255.184 60.4893C258.348 58.0587 261.608 55.6593 264.873 53.3575L266.026 54.9923C262.783 57.2783 259.545 59.6617 256.402 62.0753ZM602.329 55.9517C599.098 53.6466 595.776 51.3775 592.455 49.2076L593.549 47.5333C596.893 49.7183 600.237 52.0025 603.491 54.3238L602.329 55.9517ZM275.93 48.3096L274.845 46.6289C278.199 44.4654 281.643 42.3413 285.084 40.3159L286.099 42.0396C282.682 44.0513 279.26 46.1606 275.93 48.3096ZM582.311 42.8741C578.905 40.8428 575.407 38.8536 571.915 36.962L572.868 35.2032C576.384 37.108 579.906 39.1109 583.336 41.1563L582.311 42.8741ZM296.516 36.192L295.573 34.4283C299.095 32.5455 302.702 30.712 306.294 28.9786L307.163 30.7794C303.596 32.501 300.014 34.3223 296.516 36.192ZM561.283 31.482C557.709 29.733 554.058 28.0386 550.433 26.4458L551.237 24.6148C554.888 26.2183 558.564 27.9243 562.162 29.6861L561.283 31.482ZM318.022 25.8116L317.228 23.9756C320.888 22.3921 324.633 20.8623 328.358 19.4292L329.076 21.2964C325.376 22.7193 321.657 24.2383 318.022 25.8116ZM539.382 21.8614C535.685 20.417 531.906 19.0294 528.149 17.7378L528.8 15.8462C532.582 17.147 536.388 18.544 540.11 19.9986L539.382 21.8614ZM340.305 17.2422L339.665 15.3477C343.449 14.0694 347.306 12.8545 351.13 11.7368L351.691 13.6568C347.893 14.7666 344.063 15.9732 340.305 17.2422ZM516.754 14.0826C512.946 12.9478 509.064 11.8775 505.214 10.9019L505.705 8.96341C509.581 9.94584 513.491 11.023 517.325 12.1656L516.754 14.0826ZM363.212 10.5445L362.731 8.60306C366.605 7.64261 370.547 6.75052 374.449 5.95267L374.85 7.91167C370.975 8.70464 367.06 9.59036 363.212 10.5445ZM493.55 8.20218C489.68 7.38968 485.728 6.64554 481.806 5.98978L482.135 4.01712C486.085 4.67728 490.064 5.42679 493.961 6.24512L493.55 8.20218ZM386.606 5.75784L386.286 3.78323C390.228 3.14456 394.237 2.57961 398.202 2.10403L398.441 4.08939C394.502 4.56205 390.521 5.12356 386.606 5.75784ZM469.979 4.26321C466.053 3.772 462.054 3.35453 458.093 3.02347L458.259 1.0303C462.247 1.36379 466.274 1.78373 470.228 2.27884L469.979 4.26321ZM410.333 2.90822L410.176 0.914078C414.156 0.601078 418.197 0.365239 422.189 0.213379L422.265 2.21193C418.3 2.36283 414.286 2.59669 410.333 2.90822ZM446.165 2.26955C442.205 2.1006 438.185 2.00977 434.216 2L434.221 0C438.216 0.00977 442.263 0.10109 446.251 0.2715L446.165 2.26955Z" fill="#F6781E"/>
<path d="M691.768 158.784C690.847 157.015 689.908 155.257 688.952 153.509L690.707 152.549C691.669 154.309 692.615 156.079 693.542 157.86L691.768 158.784Z" fill="#F6781E"/>
<path d="M369.5 195.999H351V352.499C350.995 356.476 349.413 360.288 346.601 363.1C343.789 365.912 339.977 367.494 336 367.499H33.5V380.999C33.5064 385.506 35.2995 389.826 38.4862 393.013C41.673 396.2 45.9933 397.993 50.5 397.999H369.5C374.007 397.993 378.327 396.2 381.514 393.013C384.701 389.826 386.494 385.506 386.5 380.999V212.999C386.494 208.492 384.701 204.172 381.514 200.985C378.327 197.799 374.007 196.005 369.5 195.999Z" fill="#F2F2F2"/>
<path d="M336 167.499H17C12.4933 167.505 8.17296 169.299 4.98622 172.485C1.79948 175.672 0.00637539 179.992 0 184.499V352.499C0.00637803 357.006 1.7995 361.326 4.98624 364.513C8.17297 367.7 12.4933 369.493 17 369.499H336C340.507 369.493 344.827 367.7 348.014 364.513C351.201 361.326 352.994 357.006 353 352.499V184.499C352.994 179.992 351.201 175.672 348.014 172.485C344.827 169.299 340.507 167.505 336 167.499ZM351 352.499C350.995 356.476 349.413 360.288 346.601 363.1C343.789 365.912 339.977 367.494 336 367.499H17C13.0232 367.494 9.21074 365.912 6.39874 363.1C3.58675 360.288 2.00484 356.476 2 352.499V184.499C2.00484 180.522 3.58675 176.71 6.39874 173.898C9.21074 171.086 13.0232 169.504 17 169.499H336C339.977 169.504 343.789 171.086 346.601 173.898C349.413 176.71 350.995 180.522 351 184.499V352.499Z" fill="#3F3D56"/>
<path d="M311.941 291.499H199.941C197.82 291.499 195.785 290.656 194.285 289.156C192.784 287.656 191.941 285.621 191.941 283.499C191.941 281.377 192.784 279.342 194.285 277.842C195.785 276.342 197.82 275.499 199.941 275.499H311.941C314.063 275.499 316.098 276.342 317.598 277.842C319.099 279.342 319.941 281.377 319.941 283.499C319.941 285.621 319.099 287.656 317.598 289.156C316.098 290.656 314.063 291.499 311.941 291.499Z" fill="#F6781E"/>
<path d="M241.941 257.499H199.941C197.82 257.499 195.785 256.656 194.285 255.156C192.784 253.656 191.941 251.621 191.941 249.499C191.941 247.377 192.784 245.342 194.285 243.842C195.785 242.342 197.82 241.499 199.941 241.499H241.941C244.063 241.499 246.098 242.342 247.598 243.842C249.099 245.342 249.941 247.377 249.941 249.499C249.941 251.621 249.099 253.656 247.598 255.156C246.098 256.656 244.063 257.499 241.941 257.499Z" fill="#F6781E"/>
<path d="M149.5 331.499H47.5C45.2464 331.496 43.0859 330.6 41.4924 329.007C39.8989 327.413 39.0025 325.253 39 322.999V209.999C39.0025 207.745 39.8989 205.585 41.4924 203.991C43.0859 202.398 45.2464 201.502 47.5 201.499H149.5C151.754 201.502 153.914 202.398 155.508 203.991C157.101 205.585 157.997 207.745 158 209.999V322.999C157.997 325.253 157.101 327.413 155.508 329.007C153.914 330.6 151.754 331.496 149.5 331.499Z" fill="#F6781E"/>
<path d="M100.043 307.962C97.794 307.899 94.9949 307.821 92.8398 306.246C92.1977 305.758 91.6702 305.135 91.2942 304.422C90.9181 303.708 90.7027 302.921 90.6629 302.115C90.6239 301.543 90.7179 300.969 90.9374 300.439C91.1569 299.909 91.4961 299.437 91.9284 299.059C92.5708 298.58 93.323 298.269 94.1165 298.154C94.91 298.04 95.7195 298.126 96.4711 298.405L94.635 284.987L95.9828 284.802L98.1415 300.577L97.016 300.061C95.711 299.462 93.9197 299.158 92.8065 300.098C92.5333 300.344 92.3203 300.65 92.1844 300.991C92.0484 301.333 91.993 301.701 92.0225 302.067C92.0555 302.667 92.2172 303.252 92.4967 303.784C92.7762 304.315 93.1669 304.78 93.6423 305.147C95.3194 306.373 97.5506 306.531 100.081 306.602L100.043 307.962Z" fill="#3F3D56"/>
<path d="M87.9699 286.144H80.6426V287.505H87.9699V286.144Z" fill="#3F3D56"/>
<path d="M111.098 286.144H103.771V287.505H111.098V286.144Z" fill="#3F3D56"/>
<path d="M67.9121 267.358C62.0116 266.685 57.4418 261.031 56.9399 255.295C56.3428 248.471 60.3169 241.99 65.7692 238.16C71.4711 234.155 78.575 232.483 85.4484 232.115C98.8568 231.448 112.034 235.791 122.418 244.3C127.568 248.578 132.378 254.027 134.201 260.609C135.784 266.324 134.496 272.8 129.899 276.803C128.762 277.784 127.434 278.519 125.998 278.961C124.563 279.403 123.051 279.542 121.559 279.371C117.992 279 114.701 277.125 111.852 275.053C106.31 271.024 101.761 265.411 95.0092 263.305C90.0587 261.761 83.6344 263.12 80.6091 267.597C79.9227 268.622 79.4778 269.789 79.3081 271.011C79.2456 271.272 79.2845 271.546 79.4168 271.779C79.5491 272.012 79.765 272.186 80.0208 272.266C80.2817 272.336 80.5597 272.301 80.7947 272.168C81.0297 272.034 81.2026 271.814 81.2759 271.554C82.0701 265.915 89.0035 263.811 93.8688 265.098C100.963 266.976 105.725 273.306 111.545 277.328C114.558 279.574 118.107 280.991 121.838 281.437C125.074 281.69 128.285 280.704 130.82 278.678C135.792 274.751 137.693 267.998 136.594 261.918C135.321 254.878 130.582 248.843 125.382 244.172C114.842 234.801 101.157 229.745 87.0554 230.013C79.8629 230.178 72.3582 231.663 66.1619 235.465C60.1515 239.152 55.506 245.321 54.8989 252.492C54.3644 258.804 57.7509 265.406 63.564 268.171C64.9346 268.82 66.4043 269.235 67.9121 269.398C69.2147 269.547 69.2041 267.505 67.9121 267.358Z" fill="#3F3D56"/>
<path d="M878.5 460.999H862.44V513.319C862.434 517.826 860.64 522.146 857.454 525.333C854.267 528.52 849.947 530.313 845.44 530.319H444.5V537.999C444.505 543.037 446.508 547.867 450.07 551.429C453.632 554.991 458.462 556.994 463.5 556.999H878.5C883.538 556.994 888.368 554.991 891.93 551.429C895.492 547.867 897.495 543.037 897.5 537.999V479.999C897.495 474.961 895.492 470.131 891.93 466.569C888.368 463.007 883.538 461.004 878.5 460.999Z" fill="#F2F2F2"/>
<path d="M845.439 436.319H430.439C425.402 436.323 420.572 438.327 417.009 441.889C413.447 445.451 411.444 450.281 411.439 455.319V513.319C411.444 518.357 413.447 523.187 417.009 526.749C420.572 530.311 425.402 532.314 430.439 532.319H845.439C850.477 532.314 855.307 530.311 858.869 526.749C862.432 523.187 864.435 518.357 864.439 513.319V455.319C864.435 450.281 862.432 445.451 858.869 441.889C855.307 438.327 850.477 436.323 845.439 436.319ZM862.439 513.319C862.433 517.826 860.64 522.146 857.453 525.333C854.267 528.519 849.946 530.312 845.439 530.319H430.439C425.933 530.312 421.612 528.519 418.426 525.333C415.239 522.146 413.446 517.826 413.439 513.319V455.319C413.446 450.812 415.239 446.492 418.426 443.305C421.612 440.118 425.933 438.325 430.439 438.319H845.439C849.946 438.325 854.267 440.118 857.453 443.305C860.64 446.492 862.433 450.812 862.439 455.319V513.319Z" fill="#3F3D56"/>
<path d="M503.272 452.322C496.943 452.322 490.756 454.199 485.493 457.715C480.231 461.231 476.129 466.229 473.707 472.076C471.285 477.923 470.652 484.357 471.886 490.565C473.121 496.772 476.169 502.474 480.644 506.949C485.119 511.424 490.821 514.472 497.029 515.707C503.236 516.942 509.67 516.308 515.517 513.886C521.365 511.464 526.362 507.362 529.878 502.1C533.395 496.838 535.271 490.651 535.271 484.322C535.262 475.838 531.887 467.704 525.888 461.705C519.889 455.706 511.755 452.331 503.272 452.322Z" fill="#F6781E"/>
<path d="M796.61 511.322H567.61C565.489 511.322 563.454 510.479 561.953 508.979C560.453 507.478 559.61 505.444 559.61 503.322C559.61 501.2 560.453 499.165 561.953 497.665C563.454 496.165 565.489 495.322 567.61 495.322H796.61C798.732 495.322 800.767 496.165 802.267 497.665C803.768 499.165 804.61 501.2 804.61 503.322C804.61 505.444 803.768 507.478 802.267 508.979C800.767 510.479 798.732 511.322 796.61 511.322Z" fill="#F6781E"/>
<path d="M681.61 477.322H567.61C565.489 477.322 563.454 476.479 561.953 474.979C560.453 473.478 559.61 471.444 559.61 469.322C559.61 467.2 560.453 465.165 561.953 463.665C563.454 462.165 565.489 461.322 567.61 461.322H681.61C683.732 461.322 685.767 462.165 687.267 463.665C688.768 465.165 689.61 467.2 689.61 469.322C689.61 471.444 688.768 473.478 687.267 474.979C685.767 476.479 683.732 477.322 681.61 477.322Z" fill="#F6781E"/>
<path d="M501.101 498.314C500.274 498.315 499.47 498.048 498.808 497.552L498.767 497.521L490.129 490.913C489.321 490.294 488.792 489.379 488.659 488.37C488.526 487.36 488.799 486.34 489.418 485.532C490.038 484.724 490.953 484.195 491.962 484.062C492.971 483.928 493.992 484.201 494.8 484.821L500.395 489.111L513.616 471.863C513.923 471.463 514.305 471.127 514.741 470.875C515.177 470.623 515.659 470.459 516.159 470.393C516.658 470.327 517.166 470.36 517.653 470.491C518.139 470.621 518.596 470.846 518.996 471.152L518.997 471.153L518.915 471.267L518.999 471.153C519.806 471.773 520.334 472.688 520.467 473.697C520.6 474.705 520.327 475.726 519.709 476.534L504.158 496.813C503.798 497.28 503.336 497.658 502.806 497.918C502.277 498.177 501.694 498.311 501.105 498.31L501.101 498.314Z" fill="white"/>
<path d="M819.5 175.999H817.38C817.42 176.429 817.44 176.869 817.44 177.319V235.319C817.434 239.826 815.64 244.146 812.454 247.333C809.267 250.52 804.947 252.313 800.44 252.319H601.5V252.999C601.5 253.439 601.52 253.879 601.55 254.319C601.885 259.117 604.027 263.609 607.544 266.89C611.06 270.172 615.69 271.997 620.5 271.999H819.5C824.538 271.994 829.368 269.991 832.93 266.429C836.492 262.867 838.495 258.037 838.5 252.999V194.999C838.495 189.961 836.492 185.131 832.93 181.569C829.368 178.007 824.538 176.004 819.5 175.999Z" fill="#F2F2F2"/>
<path d="M819.39 175.999C819.055 171.201 816.913 166.708 813.396 163.427C809.879 160.146 805.249 158.321 800.439 158.319H601.439C596.402 158.323 591.572 160.327 588.009 163.889C584.447 167.451 582.444 172.281 582.439 177.319V235.319C582.444 240.357 584.447 245.187 588.009 248.749C591.572 252.311 596.402 254.314 601.439 254.319H800.439C805.477 254.314 810.307 252.311 813.869 248.749C817.432 245.187 819.435 240.357 819.439 235.319V177.319C819.439 176.879 819.419 176.439 819.39 175.999ZM817.439 235.319C817.433 239.826 815.64 244.146 812.453 247.333C809.267 250.519 804.946 252.312 800.439 252.319H601.439C596.933 252.312 592.612 250.519 589.426 247.333C586.239 244.146 584.446 239.826 584.439 235.319V177.319C584.446 172.812 586.239 168.492 589.426 165.305C592.612 162.118 596.933 160.325 601.439 160.319H800.439C804.717 160.325 808.835 161.942 811.975 164.847C815.114 167.753 817.043 171.734 817.379 175.999C817.419 176.429 817.439 176.869 817.439 177.319V235.319Z" fill="#3F3D56"/>
<path d="M749.941 231.322H651.941C649.82 231.322 647.785 230.479 646.285 228.979C644.784 227.478 643.941 225.444 643.941 223.322C643.941 221.2 644.784 219.165 646.285 217.665C647.785 216.165 649.82 215.322 651.941 215.322H749.941C752.063 215.322 754.098 216.165 755.598 217.665C757.099 219.165 757.941 221.2 757.941 223.322C757.941 225.444 757.099 227.478 755.598 228.979C754.098 230.479 752.063 231.322 749.941 231.322Z" fill="#F6781E"/>
<path d="M719.941 197.322H651.941C649.82 197.322 647.785 196.479 646.285 194.979C644.784 193.478 643.941 191.444 643.941 189.322C643.941 187.2 644.784 185.165 646.285 183.665C647.785 182.165 649.82 181.322 651.941 181.322H719.941C722.063 181.322 724.098 182.165 725.598 183.665C727.099 185.165 727.941 187.2 727.941 189.322C727.941 191.444 727.099 193.478 725.598 194.979C724.098 196.479 722.063 197.322 719.941 197.322Z" fill="#F6781E"/>
</g>
<defs>
<clipPath id="clip0_25_116">
<rect width="897.5" height="585.991" fill="white"/>
</clipPath>
</defs>
</svg>
